<svg version="1.1" id="Layer_1" xmlns="http://www.w3.org/2000/svg" xmlns:xlink="http://www.w3.org/1999/xlink" x="0px" y="0px"
	 width="100%" viewBox="0 0 720 719" enable-background="new 0 0 720 719" xml:space="preserve">
<path fill="#FC5E4F" opacity="1.000000" stroke="none" 
	d="
M1.000000,695.000000 
	C1.000000,463.707336 1.000000,232.414658 1.000000,1.060994 
	C240.917145,1.060994 480.834290,1.060994 720.875732,1.060994 
	C720.875732,240.666626 720.875732,480.333313 720.875366,720.000000 
	C630.557495,720.000000 540.239990,720.000000 449.431000,719.641846 
	C444.160645,714.625122 439.966003,709.074219 434.486145,705.486328 
	C421.510834,696.991028 406.415833,695.121155 391.364899,695.100891 
	C261.243439,694.925964 131.121674,695.000061 1.000000,695.000000 
M195.005798,265.006104 
	C195.005798,265.006104 195.023590,265.034393 194.385025,265.188568 
	C193.604568,266.138153 192.824097,267.087708 192.002441,268.002441 
	C192.002441,268.002441 192.037552,268.043457 191.372787,268.203674 
	C188.263809,272.488831 185.154831,276.773987 181.879868,281.609375 
	C181.550903,282.073425 181.221939,282.537476 180.311859,283.243774 
	C179.197510,285.146362 178.083160,287.048981 176.833725,289.604919 
	C175.859390,291.080750 174.885040,292.556549 173.250214,294.211151 
	C171.186249,297.834229 169.122284,301.457336 167.077545,305.811188 
	C167.064896,306.541962 167.052231,307.272766 166.556244,308.490265 
	C163.966309,313.728485 158.934769,318.136108 160.975922,325.763092 
	C160.940735,326.854584 160.905548,327.946075 160.197510,329.229675 
	C155.791092,331.616394 156.665390,335.228210 157.963837,339.805115 
	C157.957825,347.559174 157.951828,355.313232 157.562927,363.757263 
	C157.380127,365.509644 157.085129,367.259125 157.040222,369.015045 
	C156.968567,371.816406 156.839828,374.766754 160.919724,375.665649 
	C160.935013,376.127350 160.950302,376.589081 160.594574,377.654297 
	C161.423553,380.685791 161.829697,383.923401 163.182938,386.699341 
	C165.100204,390.632263 167.715775,394.224792 170.001266,397.995087 
	C170.001266,397.995087 170.037430,397.971069 170.191376,398.644531 
	C172.134140,400.752197 174.076920,402.859894 176.007767,404.992340 
	C176.007767,404.992340 176.032486,404.980347 176.186676,405.615845 
	C177.125244,406.402588 178.063812,407.189331 179.013489,407.986420 
	C179.013489,407.986420 179.023956,407.997375 179.183945,408.628723 
	C180.123520,409.410919 181.063110,410.193115 182.013916,410.985687 
	C182.013916,410.985687 182.025055,410.996216 182.182693,411.648621 
	C183.462006,412.754700 184.741318,413.860779 186.006104,414.992645 
	C186.006104,414.992645 186.031921,414.979004 186.251007,415.607574 
	C189.812759,418.089355 193.374512,420.571136 197.508270,423.162964 
	C198.014481,423.436859 198.520691,423.710785 199.153503,424.558502 
	C200.081772,425.056580 201.010040,425.554657 202.714996,426.055298 
	C203.490250,426.099091 204.265518,426.142883 205.220123,426.819397 
	C206.839523,427.860443 208.458923,428.901459 210.811584,429.925873 
	C211.544785,429.941437 212.278000,429.957001 213.515976,430.465363 
	C217.657593,431.325073 221.799194,432.184753 226.636703,433.047943 
	C227.100204,433.067352 227.563690,433.086761 228.131454,433.832794 
	C229.638824,434.861938 231.131897,436.760040 232.655807,436.785156 
	C247.064163,437.022491 261.480316,437.069275 275.886475,436.781311 
	C277.599426,436.747101 279.265839,434.383820 281.662292,433.067535 
	C282.135040,433.062256 282.607788,433.056976 283.742096,433.430786 
	C286.166443,433.449677 288.611237,433.287018 291.007355,433.556702 
	C292.406372,433.714172 293.727570,434.562775 295.166809,435.686493 
	C295.155670,436.179108 295.340973,436.810638 295.105011,437.144226 
	C286.651001,449.095703 278.116180,460.990143 269.693573,472.963562 
	C266.951538,476.861603 264.488159,480.955658 261.370728,485.335480 
	C260.190887,486.218903 259.011047,487.102356 257.217041,488.192535 
	C253.197662,491.255798 249.078873,494.200623 245.211823,497.445435 
	C243.828186,498.606415 243.052933,500.492493 241.991425,502.559082 
	C242.000061,502.729401 242.008698,502.899689 241.278656,503.063965 
	C240.546265,503.152679 239.813889,503.241425 238.205338,503.153839 
	C236.132080,503.118530 234.058838,503.083221 231.546158,502.694824 
	C230.701385,502.815369 229.856613,502.935883 228.126343,503.104462 
	C219.835876,503.704193 213.961258,499.569092 209.306793,493.291016 
	C204.780792,487.186279 205.371994,480.030792 206.211624,473.181549 
	C206.841232,468.045624 208.927155,463.099396 210.205795,458.028656 
	C211.399551,453.294647 210.050552,451.520996 205.148514,451.305847 
	C201.998199,451.167603 198.628448,450.583923 195.722916,451.440643 
	C189.549438,453.260956 182.768585,454.452179 178.866394,461.421478 
	C178.530945,461.872894 178.195480,462.324310 177.419556,462.614594 
	C177.419556,462.614594 176.976929,462.459503 176.537979,461.998779 
	C173.723099,462.742401 170.564224,462.903015 168.150864,464.327057 
	C155.389420,471.857330 147.722748,483.484833 145.367279,497.741241 
	C143.266830,510.453979 145.464523,523.212952 151.383255,534.848816 
	C159.349823,550.510620 171.728333,561.671936 189.351669,563.962708 
	C201.559875,565.549622 214.251816,564.584045 226.587143,563.352234 
	C230.584717,562.953003 236.347214,562.780457 239.844604,557.780396 
	C243.936951,556.642578 248.228867,555.963074 252.085419,554.283752 
	C265.316498,548.522339 278.106323,541.968323 288.977142,532.184570 
	C305.031067,517.736145 318.506927,501.198151 329.255493,482.494568 
	C335.431183,471.748230 341.427216,460.880524 347.001129,449.814087 
	C349.847870,444.162109 351.586121,437.951874 353.947021,431.469025 
	C353.968445,431.290710 353.989899,431.112366 354.627502,430.736450 
	C355.358063,428.859528 356.088654,426.982605 356.942719,424.369385 
	C356.997894,423.625793 357.053040,422.882202 357.543457,421.974670 
	C357.543457,421.974670 357.970215,421.789612 358.624176,421.611389 
	C360.392731,416.957367 362.161316,412.303314 364.658966,407.662292 
	C370.636566,404.996979 376.598114,402.294922 382.596252,399.676727 
	C388.705414,397.010101 394.850586,394.426117 401.024475,392.753601 
	C399.935120,406.799988 399.527161,420.943085 397.551514,434.863678 
	C395.815399,447.096588 395.806702,459.258575 396.149353,471.472748 
	C396.268707,475.728027 396.839233,480.316864 398.587463,484.116699 
	C404.324066,496.585602 413.638153,506.166656 424.865784,513.900330 
	C432.284637,519.010559 440.524780,521.889893 449.224945,524.444763 
	C459.018951,527.320740 467.541443,524.564941 476.452637,522.229736 
	C477.148041,522.047546 477.532349,520.678040 478.897552,519.841248 
	C480.711029,519.677002 482.730804,519.972473 484.301636,519.267517 
	C490.539001,516.468201 496.752258,513.570496 502.759125,510.312195 
	C512.735596,504.900635 522.126404,498.461884 528.903198,489.255768 
	C535.167847,480.745239 541.277222,471.931396 545.964600,462.509613 
	C549.623657,455.154846 551.382690,446.753784 553.287354,438.653351 
	C555.540771,429.069855 557.742981,419.372345 558.616028,409.603485 
	C559.161133,403.504150 556.854919,397.204102 556.462585,390.954285 
	C555.869629,381.507141 551.681946,373.509705 546.600586,366.062103 
	C530.925781,343.088287 508.929321,330.948639 481.200287,329.135040 
	C479.758026,329.040710 478.322510,328.843109 477.408356,328.748077 
	C478.003387,321.096375 478.524963,313.914368 479.142181,306.740570 
	C479.327393,304.588074 479.840790,302.465912 480.099060,300.317230 
	C482.033234,284.226532 483.920074,268.130127 485.872986,252.041718 
	C486.328857,248.285934 487.210236,244.570816 487.487030,240.806915 
	C487.873322,235.554291 487.875366,230.273407 488.294861,224.182159 
	C488.244049,222.804230 488.193237,221.426315 488.489044,219.255798 
	C487.628998,215.918091 486.768921,212.580368 485.871796,208.284592 
	C485.570465,203.814926 486.057892,199.108154 484.800659,194.925858 
	C482.323242,186.684586 478.382782,179.019897 472.318298,172.665100 
	C464.220551,164.179764 454.335297,158.909485 442.966248,156.302948 
	C439.778442,155.572098 436.456177,155.226288 433.410400,154.115036 
	C423.901642,150.645721 417.239227,154.156235 416.269257,162.845047 
	C413.463989,162.589905 410.643036,162.013611 407.856842,162.149506 
	C402.768768,162.397644 401.068024,165.009293 402.625732,169.886673 
	C404.829620,176.787445 404.776031,183.536026 402.154083,190.351089 
	C400.505463,194.636185 399.367584,199.114792 397.880005,203.465393 
	C393.381958,216.620438 388.960358,229.804230 384.239899,242.879684 
	C381.450562,250.606110 378.113770,258.133606 375.092194,265.777832 
	C371.154022,275.741028 367.484039,285.815216 363.334473,295.688599 
	C358.166626,307.984833 352.646576,320.133453 347.243011,332.330078 
	C342.092010,343.956604 336.908783,355.568878 331.712067,367.175049 
	C329.557373,371.987366 327.330994,376.767609 324.529846,382.032837 
	C318.556885,384.461151 312.683990,387.183929 306.589539,389.254608 
	C295.004913,393.190613 283.369476,397.020325 271.606140,400.370880 
	C264.616608,402.361755 257.314056,403.226837 250.202682,404.822693 
	C236.409103,407.918091 223.097916,406.812714 210.636429,399.967621 
	C187.226135,387.108307 180.414307,367.365784 184.623230,344.320801 
	C187.343735,329.425293 194.505630,316.263702 203.791489,304.243683 
	C214.724304,290.091766 227.594513,278.380371 244.498138,271.177765 
	C246.647247,270.592834 248.791702,269.532196 250.946320,269.511108 
	C257.711304,269.444824 264.616760,268.979675 271.216797,270.120880 
	C282.235565,272.026062 292.056122,276.468536 297.629761,287.273285 
	C300.584564,293.001373 302.466064,298.771698 302.119446,305.368317 
	C301.820557,311.057007 304.236542,312.127319 309.142548,309.386963 
	C312.261017,307.645081 315.642120,306.373383 319.605255,304.671997 
	C322.149506,303.491150 324.823456,302.527069 327.217438,301.095032 
	C345.617462,290.087982 357.723755,275.564240 353.589294,252.398651 
	C353.196533,250.197891 351.507782,248.228424 350.580872,245.402069 
	C349.945984,243.752579 349.560974,241.945862 348.637421,240.478012 
	C339.762482,226.372360 325.466675,221.242386 310.261536,218.483276 
	C298.313538,216.315216 286.166504,216.441589 273.790375,219.818192 
	C269.635925,217.442993 264.626801,219.161789 264.206207,223.724701 
	C264.214661,223.938309 264.223083,224.151901 263.513092,224.349319 
	C263.044830,224.443512 262.576569,224.537704 261.367584,224.380188 
	C260.588715,224.328415 259.809845,224.276642 258.543396,223.816681 
	C255.582764,222.735458 255.280792,224.735107 254.404465,227.014847 
	C253.954498,227.056564 253.504517,227.098297 252.502945,226.721390 
	C249.134445,225.404572 247.789032,227.311844 246.557419,230.312592 
	C246.220474,230.385406 245.893219,230.354782 244.772583,230.264206 
	C239.807709,232.310455 234.635803,233.976883 229.948303,236.531998 
	C226.638397,238.336182 223.985245,241.345261 220.463699,244.210602 
	C218.994675,244.823624 217.525650,245.436630 215.330734,246.091904 
	C210.897827,250.068542 206.464920,254.045197 202.004883,258.006561 
	C202.004883,258.006561 202.022003,258.033203 201.384232,258.187866 
	C200.600418,259.134949 199.816605,260.082031 198.746201,261.408051 
	C198.537201,261.648834 198.300201,261.857849 197.394852,262.187042 
	C196.608002,263.132507 195.821152,264.077972 195.005798,265.006104 
z"/>
<path fill="#F05A4B" opacity="1.000000" stroke="none" 
	d="
M1.000000,695.460632 
	C131.121674,695.000061 261.243439,694.925964 391.364899,695.100891 
	C406.415833,695.121155 421.510834,696.991028 434.486145,705.486328 
	C439.966003,709.074219 444.160645,714.625122 448.969727,719.641846 
	C442.978851,720.000000 436.957703,720.000000 430.381378,719.664795 
	C428.277222,717.916870 426.924591,716.159973 425.147919,715.146362 
	C411.537140,707.380920 396.255981,707.216797 381.419586,707.179993 
	C254.613693,706.865845 127.806679,707.000000 1.000000,707.000000 
	C1.000000,703.307068 1.000000,699.614197 1.000000,695.460632 
z"/>
<path fill="#E45547" opacity="1.000000" stroke="none" 
	d="
M419.000000,720.000000 
	C279.666656,720.000000 140.333328,720.000000 1.000000,720.000000 
	C1.000000,717.646851 1.000000,715.316162 1.468657,712.492798 
	C128.463882,712.000000 254.990479,711.957092 381.516907,712.096558 
	C389.949921,712.105835 398.468079,713.002747 406.777740,714.454041 
	C411.044556,715.199280 414.937897,718.082764 419.000000,720.000000 
z"/>
<path fill="#EA5749" opacity="1.000000" stroke="none" 
	d="
M419.458069,720.000000 
	C414.937897,718.082764 411.044556,715.199280 406.777740,714.454041 
	C398.468079,713.002747 389.949921,712.105835 381.516907,712.096558 
	C254.990479,711.957092 128.463882,712.000000 1.468657,712.000000 
	C1.000000,710.611084 1.000000,709.222229 1.000000,707.416626 
	C127.806679,707.000000 254.613693,706.865845 381.419586,707.179993 
	C396.255981,707.216797 411.537140,707.380920 425.147919,715.146362 
	C426.924591,716.159973 428.277222,717.916870 429.913086,719.664795 
	C426.638702,720.000000 423.277435,720.000000 419.458069,720.000000 
z"/>
<path fill="#FFD35B" opacity="1.000000" stroke="none" 
	d="
M350.420685,246.151581 
	C351.507782,248.228424 353.196533,250.197891 353.589294,252.398651 
	C357.723755,275.564240 345.617462,290.087982 327.217438,301.095032 
	C324.823456,302.527069 322.149506,303.491150 319.157715,304.433960 
	C318.588745,302.555420 318.359802,300.914642 318.362854,299.274353 
	C318.387024,286.281708 314.096405,275.430420 302.656555,268.339844 
	C288.576477,259.612823 273.390839,260.740448 258.258484,264.343933 
	C253.264603,265.533112 248.721008,268.613220 243.971512,270.828705 
	C227.594513,278.380371 214.724304,290.091766 203.791489,304.243683 
	C194.505630,316.263702 187.343735,329.425293 184.623230,344.320801 
	C180.414307,367.365784 187.226135,387.108307 210.636429,399.967621 
	C223.097916,406.812714 236.409103,407.918091 250.202682,404.822693 
	C257.314056,403.226837 264.616608,402.361755 271.606140,400.370880 
	C283.369476,397.020325 295.004913,393.190613 306.589539,389.254608 
	C312.683990,387.183929 318.556885,384.461151 325.205261,381.864044 
	C334.077179,379.980927 340.869995,377.100616 344.481323,368.231934 
	C350.535919,353.363220 357.845490,339.010773 364.350067,324.318481 
	C370.512939,310.398041 376.506531,296.395782 382.232330,282.290588 
	C388.212250,267.559357 393.949493,252.723953 399.487366,237.820572 
	C405.024170,222.920044 410.183044,207.879074 415.729919,192.792328 
	C416.244690,192.108459 416.537109,191.531921 416.870361,190.549866 
	C417.512665,187.740479 418.114166,185.336609 418.984802,182.806549 
	C419.718140,181.325684 420.182373,179.971039 420.583008,178.285828 
	C420.550812,177.284958 420.582275,176.614670 420.956238,175.948563 
	C421.525757,175.945938 421.752869,175.939148 422.096802,176.250458 
	C425.802734,180.665497 429.810822,184.471878 432.895355,188.918808 
	C439.708893,198.741837 446.083313,208.829056 455.233368,216.807693 
	C461.235321,222.041306 466.665802,227.938126 472.747589,233.069275 
	C476.085815,235.885651 480.243713,237.730453 484.052185,240.478607 
	C483.086914,249.501419 482.020142,258.050537 481.135345,266.618439 
	C479.826660,279.291229 478.765747,291.990448 477.365570,304.652588 
	C476.603027,311.548279 475.325195,318.386017 474.347473,325.259491 
	C473.975647,327.873596 474.024811,330.195587 477.506927,330.926605 
	C486.503937,332.815491 495.542847,334.596283 504.408600,336.997620 
	C518.121277,340.711792 529.075684,348.927216 538.339600,359.444031 
	C545.215210,367.249512 549.922302,376.148315 552.683411,386.346069 
	C556.486267,400.391052 555.796509,414.435425 553.343201,428.331543 
	C551.695984,437.661987 548.367737,446.764862 545.102234,455.718109 
	C542.583862,462.622894 539.714478,469.603912 535.741089,475.734406 
	C524.961243,492.366516 510.639313,504.993530 492.162231,512.980835 
	C480.865234,517.864258 469.369781,517.019531 458.519012,514.089844 
	C446.883636,510.948242 436.345642,504.207886 428.424774,494.735229 
	C423.390381,488.714539 417.478119,482.245697 415.604340,475.031128 
	C412.503571,463.092651 412.539734,450.458069 414.464447,437.932495 
	C415.406342,431.803070 414.442780,425.380859 414.326599,418.720642 
	C414.367035,417.611542 414.422516,416.872925 414.735107,415.892822 
	C415.855042,407.989685 416.717865,400.328094 417.580200,392.251404 
	C417.762177,389.898804 417.944641,387.961212 418.440308,385.928406 
	C419.171906,384.222900 419.590302,382.612610 420.014313,380.603516 
	C420.026611,379.141052 420.033264,378.077393 420.297882,376.903137 
	C420.687439,375.881805 420.819061,374.971069 420.959564,373.605896 
	C420.968384,370.417816 420.968384,367.684143 421.182800,364.663330 
	C422.253265,359.040527 423.082642,353.700378 423.977448,348.371216 
	C424.381012,345.968018 424.196747,343.027710 425.534851,341.308380 
	C428.607574,337.360291 428.460419,333.404297 427.200073,328.683746 
	C427.299744,327.210449 427.433014,326.141479 427.831848,324.892944 
	C429.069885,321.851257 430.396545,319.055328 430.946808,316.114197 
	C432.459991,308.026031 433.625397,299.873291 434.973846,291.753632 
	C435.614197,287.897736 436.671295,284.083527 436.974457,280.206238 
	C437.341553,275.511841 437.110596,270.770691 437.095886,265.634094 
	C437.162384,263.835480 437.271454,262.452545 437.688477,260.933899 
	C438.913818,259.101654 440.590179,257.421448 440.627136,255.705917 
	C440.895935,243.230774 440.898376,230.747910 440.774567,218.269562 
	C440.762787,217.080276 439.540009,215.463028 438.439331,214.890381 
	C437.784576,214.549744 435.583771,215.603409 435.254059,216.475067 
	C433.322968,221.580231 431.738953,226.816681 430.001038,232.333618 
	C429.877869,233.085144 429.791504,233.511917 429.382172,234.060242 
	C425.159912,238.936890 423.761505,244.560532 423.432678,250.770264 
	C423.507507,251.327484 423.460297,251.641144 422.999817,252.126129 
	C421.932526,254.350861 421.209961,256.393921 420.444702,258.685425 
	C420.355103,259.269775 420.308136,259.605652 419.957458,260.115479 
	C419.051971,262.172394 418.450165,264.055420 417.822266,266.272705 
	C417.717041,267.046875 417.637970,267.486755 417.290771,268.086487 
	C413.061707,273.118408 410.694672,278.570343 410.913574,285.300018 
	C410.814697,286.060333 410.740234,286.492493 410.373718,287.032349 
	C409.417480,288.766144 408.753326,290.392273 408.062012,292.385010 
	C407.899170,293.473541 407.763489,294.195465 407.322968,295.039001 
	C406.133636,296.916412 405.249176,298.672241 404.390625,300.746277 
	C404.376068,301.701019 404.335602,302.337585 403.968018,303.149841 
	C402.877838,305.026550 402.114777,306.727539 401.384033,308.681274 
	C401.381165,309.271210 401.345886,309.608337 401.046753,310.196838 
	C400.021057,311.712952 398.972626,312.889465 398.550842,314.258942 
	C397.254578,318.467712 396.198273,322.750366 395.029541,327.331573 
	C394.939453,328.089844 394.868591,328.520874 394.470703,329.062622 
	C393.227203,331.263153 392.310760,333.352997 391.429382,335.697418 
	C391.431610,336.292297 391.398773,336.632629 391.025452,337.148041 
	C389.900604,339.348511 389.116211,341.373871 388.361603,343.662354 
	C388.354462,344.275787 388.317535,344.626129 387.975403,345.132324 
	C387.090576,346.848969 386.511017,348.409729 385.896057,350.302246 
	C385.771332,351.069641 385.682007,351.505310 385.338440,352.122070 
	C383.275085,354.950043 384.737488,357.245056 387.093079,356.628357 
	C392.463989,355.222260 398.390533,354.397003 402.398071,349.256317 
	C403.146301,349.119904 403.577087,349.059875 404.274261,349.180847 
	C405.738922,349.033478 406.972656,348.798553 408.129028,348.359741 
	C412.023254,346.882019 415.890015,345.331848 419.767303,343.809387 
	C418.738678,349.956573 417.010529,354.756989 415.264526,359.550842 
	C413.454926,364.519318 411.665863,369.495789 409.797211,374.442078 
	C408.223633,378.607300 406.548706,382.734192 404.543121,386.917755 
	C403.202667,387.190887 402.165253,387.269501 401.284424,387.682281 
	C394.397949,390.909424 387.518921,394.154449 380.682770,397.486603 
	C375.066345,400.224243 369.511841,403.088898 363.580719,405.994934 
	C359.836426,407.410583 356.441284,408.728546 352.678802,410.077393 
	C346.531921,412.120880 340.752411,414.133484 334.616821,416.209229 
	C327.504974,418.483643 320.749207,420.694916 313.693359,422.891724 
	C312.406250,422.717499 311.419250,422.557648 309.981903,422.307983 
	C306.697815,422.283905 303.281982,420.815216 302.014557,425.294556 
	C301.994659,425.526855 302.028168,425.991943 301.704834,425.979034 
	C300.557495,426.167786 299.733490,426.369415 298.503876,426.511658 
	C296.737091,426.528992 295.375946,426.605713 293.713318,426.529663 
	C292.280579,426.265839 291.149323,426.154785 289.666931,425.827881 
	C286.525208,425.426422 283.735687,425.103455 280.943756,425.080780 
	C272.373505,425.011322 263.801483,424.993073 255.232056,425.103699 
	C253.143402,425.130676 251.062119,425.727722 248.666718,426.091797 
	C247.940430,426.141479 247.524857,426.162048 246.799164,425.947266 
	C239.479858,423.543701 232.419601,421.525360 225.478180,419.158447 
	C220.210419,417.362213 215.093994,415.122162 209.946838,413.045227 
	C209.983444,413.010864 209.931946,413.096985 209.870132,412.741943 
	C207.869919,411.260406 205.931519,410.133942 203.776520,408.752197 
	C202.839691,407.809265 202.137482,407.101532 201.396561,406.436981 
	C185.805328,392.451538 176.437119,375.127594 174.286179,354.267212 
	C172.785538,339.713531 175.455811,325.661285 180.066544,311.749756 
	C184.764496,297.575043 191.661713,284.763580 200.457489,272.826935 
	C201.774246,271.039978 202.605347,268.895172 203.732910,266.864990 
	C203.804718,266.814026 203.901352,266.666809 204.226364,266.651031 
	C205.714142,265.130615 206.876907,263.625977 208.074448,262.115753 
	C208.109222,262.110168 208.121964,262.040894 208.438751,261.953613 
	C211.821655,258.601929 214.887772,255.337494 217.997345,252.056946 
	C218.040817,252.040802 218.073151,251.953903 218.369705,251.878845 
	C219.470612,250.919754 220.274979,250.035736 221.112015,249.148529 
	C221.144684,249.145340 221.151962,249.080109 221.469788,248.977814 
	C226.397690,245.548019 231.007767,242.220520 236.046295,238.985291 
	C253.474945,240.384232 270.471893,241.735245 287.476410,242.983536 
	C301.183350,243.989777 314.892426,244.997253 328.614227,245.758163 
	C335.868011,246.160400 343.150909,246.037430 350.420685,246.151581 
M513.838257,485.955505 
	C515.637268,484.043915 517.436279,482.132294 519.809143,479.899872 
	C521.361694,478.178955 523.138672,476.610840 524.430542,474.712585 
	C533.327148,461.640167 540.452881,447.838287 543.587402,432.073914 
	C546.577637,417.035522 547.267883,402.273773 543.248230,387.263763 
	C540.168396,375.762909 533.041626,367.568573 522.949768,362.722382 
	C507.958282,355.523346 491.823425,357.515289 475.941101,359.693390 
	C474.839783,359.844391 473.551239,360.387817 472.831604,361.184143 
	C471.489227,362.669495 469.732727,364.369415 469.485565,366.164124 
	C467.176483,382.932373 465.094757,399.733002 463.087952,416.541046 
	C462.639130,420.300049 462.741608,424.124908 462.455444,428.706390 
	C462.454193,429.237793 462.452942,429.769226 461.948242,430.832214 
	C461.155304,434.219727 459.847900,437.580872 459.672607,441.000031 
	C459.261902,449.011597 457.511322,457.277161 462.410004,465.490112 
	C462.503113,466.004028 462.596252,466.517914 462.497864,467.731995 
	C464.789032,476.042511 468.832733,483.488403 475.422974,488.973999 
	C488.280334,499.676208 501.210358,499.691223 513.838257,485.955505 
z"/>
<path fill="#FFD55B" opacity="1.000000" stroke="none" 
	d="
M239.081497,503.330170 
	C239.813889,503.241425 240.546265,503.152679 241.931305,503.249329 
	C245.524460,504.350220 247.332245,503.246979 248.429504,500.256470 
	C249.154556,500.118713 249.571182,500.052277 250.239563,500.133881 
	C252.959717,498.464355 255.428101,496.646790 258.040588,494.746826 
	C258.184692,494.664429 258.511566,494.606506 258.881714,494.626129 
	C260.203278,493.506012 261.154694,492.366272 262.311096,491.147827 
	C262.516052,491.069122 262.940277,490.955658 263.305359,490.948730 
	C266.026947,488.892059 268.383484,486.842316 270.748474,484.774475 
	C270.756897,484.756409 270.793640,484.740906 271.142944,484.718750 
	C272.344116,483.496155 273.195984,482.295715 274.049011,481.072571 
	C274.050140,481.049866 274.095551,481.047089 274.426025,481.004547 
	C275.434204,480.202332 276.111877,479.442688 276.903015,478.502441 
	C277.191284,478.092865 277.402283,477.904205 278.011658,477.737457 
	C281.485046,473.729431 284.596130,469.739929 287.724609,465.727722 
	C287.742065,465.705048 287.792664,465.731750 288.111511,465.684326 
	C288.866486,464.970428 289.302612,464.303925 289.777069,463.368164 
	C289.936066,462.757507 290.056702,462.416077 290.526428,462.035553 
	C292.328857,460.741425 294.094025,459.709900 295.181549,458.192688 
	C299.883301,451.632935 304.542572,445.030334 308.879211,438.227783 
	C310.425476,435.802307 311.014984,432.766876 312.093872,429.728821 
	C312.367340,428.922455 312.588135,428.397125 313.166565,427.813873 
	C315.577454,427.319183 317.612549,426.743713 319.687439,426.471832 
	C325.720367,425.681274 331.753418,424.779572 337.816742,424.367340 
	C342.929871,424.019714 348.085358,424.295776 353.344879,424.295776 
	C352.786346,427.503571 352.393951,429.757202 351.916443,432.364807 
	C348.949768,438.787994 346.237793,444.945068 343.147675,450.906128 
	C338.247955,460.357910 333.095398,469.678650 327.643921,479.073761 
	C321.979767,480.951874 316.582520,482.499084 311.504181,484.761871 
	C306.846588,486.837158 302.595459,489.804474 298.055420,492.167755 
	C286.883179,497.983521 275.581116,503.552368 264.456238,509.456024 
	C253.069107,515.498779 241.773148,521.719604 230.542633,528.049377 
	C218.077805,535.074829 204.649673,540.517517 193.390930,550.168823 
	C190.395798,549.250977 187.229645,549.005127 185.292770,547.334290 
	C180.657211,543.335266 175.955719,539.112732 172.502075,534.133362 
	C169.430801,529.705261 168.001389,524.138428 166.173218,518.948242 
	C168.059372,516.526428 169.873199,514.361450 171.136963,511.912567 
	C177.373474,499.827576 183.646210,487.754791 189.533905,475.498871 
	C192.735092,468.835236 195.194519,461.815308 198.205246,454.677155 
	C202.661057,451.254883 204.941071,454.325104 207.123444,456.620636 
	C206.055420,460.226379 205.545517,463.542511 204.133408,466.415070 
	C199.961472,474.901703 201.057312,490.802032 208.624130,496.677551 
	C213.365829,500.359467 218.520325,503.644196 223.862686,506.378082 
	C228.655899,508.830963 236.663116,506.779205 239.081497,503.330170 
z"/>
<path fill="#D34B41" opacity="1.000000" stroke="none" 
	d="
M420.613770,175.944382 
	C420.582275,176.614670 420.550812,177.284958 420.316528,178.460693 
	C419.647705,180.288345 419.181702,181.610550 418.715698,182.932755 
	C418.114166,185.336609 417.512665,187.740479 416.614624,190.629105 
	C416.047913,191.709137 415.777771,192.304413 415.507629,192.899689 
	C410.183044,207.879074 405.024170,222.920044 399.487366,237.820572 
	C393.949493,252.723953 388.212250,267.559357 382.232330,282.290588 
	C376.506531,296.395782 370.512939,310.398041 364.350067,324.318481 
	C357.845490,339.010773 350.535919,353.363220 344.481323,368.231934 
	C340.869995,377.100616 334.077179,379.980927 325.508911,381.628845 
	C327.330994,376.767609 329.557373,371.987366 331.712067,367.175049 
	C336.908783,355.568878 342.092010,343.956604 347.243011,332.330078 
	C352.646576,320.133453 358.166626,307.984833 363.334473,295.688599 
	C367.484039,285.815216 371.154022,275.741028 375.092194,265.777832 
	C378.113770,258.133606 381.450562,250.606110 384.239899,242.879684 
	C388.960358,229.804230 393.381958,216.620438 397.880005,203.465393 
	C399.367584,199.114792 400.505463,194.636185 402.154083,190.351089 
	C404.776031,183.536026 404.829620,176.787445 402.625732,169.886673 
	C401.068024,165.009293 402.768768,162.397644 407.856842,162.149506 
	C410.643036,162.013611 413.463989,162.589905 416.854126,163.233185 
	C418.497223,167.729004 419.555481,171.836700 420.613770,175.944382 
z"/>
<path fill="#D54A42" opacity="1.000000" stroke="none" 
	d="
M294.014801,426.682434 
	C295.375946,426.605713 296.737091,426.528992 298.517548,426.955017 
	C298.938904,428.337311 298.940948,429.216797 298.622986,429.949951 
	C293.228821,430.886322 288.154663,431.968994 283.080536,433.051697 
	C282.607788,433.056976 282.135040,433.062256 280.871826,433.064941 
	C269.825348,433.726837 259.573944,434.798920 249.311646,434.915558 
	C242.224609,434.996155 235.122543,433.756104 228.027191,433.106171 
	C227.563690,433.086761 227.100204,433.067352 225.987885,432.849060 
	C221.229782,431.757660 217.120499,430.865112 213.011200,429.972565 
	C212.278000,429.957001 211.544785,429.941437 210.331940,429.619659 
	C208.248474,428.271179 206.644623,427.228943 205.040771,426.186707 
	C204.265518,426.142883 203.490250,426.099091 202.161682,425.792419 
	C200.747894,425.014618 199.887390,424.499634 199.026901,423.984680 
	C198.520691,423.710785 198.014481,423.436859 197.054138,422.819092 
	C193.077316,419.976471 189.554611,417.477722 186.031921,414.979004 
	C186.031921,414.979004 186.006104,414.992645 185.922821,414.661194 
	C184.568039,413.218536 183.296539,412.107391 182.025055,410.996216 
	C182.025055,410.996216 182.013916,410.985687 181.917206,410.672363 
	C180.888321,409.571808 179.956146,408.784607 179.023956,407.997375 
	C179.023956,407.997375 179.013489,407.986420 178.918091,407.672791 
	C177.892624,406.566223 176.962555,405.773285 176.032471,404.980347 
	C176.032486,404.980347 176.007767,404.992340 175.921860,404.649292 
	C173.903107,402.194489 171.970276,400.082794 170.037430,397.971069 
	C170.037430,397.971069 170.001266,397.995087 169.980774,397.605743 
	C166.962036,390.494537 163.963821,383.772644 160.965607,377.050781 
	C160.950302,376.589081 160.935013,376.127350 160.840805,374.945953 
	C159.823196,370.506592 158.884521,366.786957 157.945831,363.067291 
	C157.951828,355.313232 157.957825,347.559174 158.156982,339.072113 
	C159.190201,335.238586 160.030273,332.138092 160.870346,329.037567 
	C160.905548,327.946075 160.940735,326.854584 161.181839,325.081757 
	C163.271698,318.934784 165.155624,313.469177 167.039566,308.003540 
	C167.052231,307.272766 167.064896,306.541962 167.390808,305.328308 
	C169.772934,301.241058 171.841797,297.636719 173.910675,294.032379 
	C174.885040,292.556549 175.859390,291.080750 177.185760,289.106445 
	C178.656189,286.739166 179.774597,284.870331 180.892975,283.001526 
	C181.221939,282.537476 181.550903,282.073425 182.268188,281.204163 
	C185.783508,276.547089 188.910522,272.295258 192.037537,268.043457 
	C192.037552,268.043457 192.002441,268.002441 192.332809,267.928955 
	C193.449982,266.915100 194.236786,265.974731 195.023590,265.034393 
	C195.023590,265.034393 195.005798,265.006104 195.330688,264.926025 
	C196.448792,263.908997 197.242004,262.972046 198.035187,262.035095 
	C198.300201,261.857849 198.537201,261.648834 199.199432,261.126831 
	C200.442444,259.908173 201.232239,258.970703 202.022003,258.033203 
	C202.022003,258.033203 202.004883,258.006561 202.357361,257.931732 
	C207.158783,253.921158 211.607697,249.985413 216.056625,246.049652 
	C217.525650,245.436630 218.994675,244.823624 221.084808,243.981796 
	C222.807266,243.505661 223.908585,243.258347 225.004959,243.005600 
	C225.000000,243.000168 224.989304,242.990509 224.905487,243.318100 
	C223.598419,245.457169 222.375198,247.268631 221.151962,249.080109 
	C221.151962,249.080109 221.144684,249.145340 220.784454,249.178543 
	C219.640518,250.125793 218.856827,251.039841 218.073151,251.953888 
	C218.073151,251.953903 218.040817,252.040802 217.665619,252.103973 
	C214.234268,255.458405 211.178116,258.749664 208.121979,262.040894 
	C208.121964,262.040894 208.109222,262.110168 207.745697,262.156860 
	C206.221909,263.691315 205.061615,265.179047 203.901337,266.666809 
	C203.901352,266.666809 203.804718,266.814026 203.452850,266.998413 
	C200.976212,269.493805 198.351242,271.515869 196.818497,274.168884 
	C191.795258,282.863586 186.929031,291.668091 182.451889,300.654266 
	C177.036560,311.523499 172.922256,322.842560 172.960709,335.266937 
	C172.964691,336.553436 172.580246,337.896271 172.126953,339.120728 
	C166.120819,355.345612 164.779892,371.381989 173.883896,387.047913 
	C181.140381,399.534607 191.570282,407.806671 206.043701,411.288696 
	C207.524216,412.027283 208.728073,412.562134 209.931946,413.096985 
	C209.931946,413.096985 209.983444,413.010864 210.043915,413.369507 
	C220.980728,422.141449 233.540558,425.918610 247.303024,427.362610 
	C250.388596,428.379608 253.181534,429.759277 256.016693,429.852295 
	C264.952576,430.145508 273.920715,430.270477 282.842102,429.804413 
	C286.610443,429.607513 290.293152,427.772736 294.014801,426.682434 
z"/>
<path fill="#D34941" opacity="1.000000" stroke="none" 
	d="
M418.127075,386.023651 
	C417.944641,387.961212 417.762177,389.898804 417.335693,392.503174 
	C414.029083,400.575317 413.428162,408.260895 414.477997,416.134308 
	C414.422516,416.872925 414.367035,417.611542 414.070435,419.010010 
	C409.731293,434.199982 411.431732,449.091492 411.017822,463.857483 
	C410.767944,472.771606 413.973419,480.513550 419.149506,487.351715 
	C433.921417,506.867126 453.045441,518.773438 478.061249,519.860352 
	C477.532349,520.678040 477.148041,522.047546 476.452637,522.229736 
	C467.541443,524.564941 459.018951,527.320740 449.224945,524.444763 
	C440.524780,521.889893 432.284637,519.010559 424.865784,513.900330 
	C413.638153,506.166656 404.324066,496.585602 398.587463,484.116699 
	C396.839233,480.316864 396.268707,475.728027 396.149353,471.472748 
	C395.806702,459.258575 395.815399,447.096588 397.551514,434.863678 
	C399.527161,420.943085 399.935120,406.799988 401.272491,392.090942 
	C406.328033,387.626709 411.387177,384.395538 417.813599,384.546936 
	C417.923706,385.240601 418.025391,385.632141 418.127075,386.023651 
z"/>
<path fill="#D34B41" opacity="1.000000" stroke="none" 
	d="
M239.105667,557.846191 
	C236.347214,562.780457 230.584717,562.953003 226.587143,563.352234 
	C214.251816,564.584045 201.559875,565.549622 189.351669,563.962708 
	C171.728333,561.671936 159.349823,550.510620 151.383255,534.848816 
	C145.464523,523.212952 143.266830,510.453979 145.367279,497.741241 
	C147.722748,483.484833 155.389420,471.857330 168.150864,464.327057 
	C170.564224,462.903015 173.723099,462.742401 176.593079,462.534546 
	C175.963806,463.978699 175.279449,464.887085 174.325409,465.986328 
	C170.971237,471.457581 167.886749,476.737915 164.497009,482.147491 
	C161.393585,484.520447 160.207123,487.277863 161.475174,491.280334 
	C161.563049,494.527679 161.646118,497.310608 161.627350,500.529114 
	C161.539581,503.977142 161.553665,506.989563 161.414642,510.328552 
	C163.094193,516.415283 164.431946,522.393311 166.853821,527.894043 
	C173.660324,543.353577 185.861633,552.591614 202.383240,556.947327 
	C203.510986,556.990295 204.265335,556.973145 205.315628,557.091553 
	C207.971359,557.233582 210.331161,557.239929 212.821472,557.446289 
	C213.627548,557.726868 214.303101,557.807556 215.406830,557.951660 
	C217.562912,557.986328 219.290802,557.957458 221.237167,558.101074 
	C222.295227,558.140930 223.134811,558.008362 224.339905,557.887329 
	C229.505508,557.881287 234.305588,557.863708 239.105667,557.846191 
z"/>
<path fill="#F79D54" opacity="1.000000" stroke="none" 
	d="
M478.479401,519.850830 
	C453.045441,518.773438 433.921417,506.867126 419.149506,487.351715 
	C413.973419,480.513550 410.767944,472.771606 411.017822,463.857483 
	C411.431732,449.091492 409.731293,434.199982 414.085480,419.380524 
	C414.442780,425.380859 415.406342,431.803070 414.464447,437.932495 
	C412.539734,450.458069 412.503571,463.092651 415.604340,475.031128 
	C417.478119,482.245697 423.390381,488.714539 428.424774,494.735229 
	C436.345642,504.207886 446.883636,510.948242 458.519012,514.089844 
	C469.369781,517.019531 480.865234,517.864258 492.162231,512.980835 
	C510.639313,504.993530 524.961243,492.366516 535.741089,475.734406 
	C539.714478,469.603912 542.583862,462.622894 545.102234,455.718109 
	C548.367737,446.764862 551.695984,437.661987 553.343201,428.331543 
	C555.796509,414.435425 556.486267,400.391052 552.683411,386.346069 
	C549.922302,376.148315 545.215210,367.249512 538.339600,359.444031 
	C529.075684,348.927216 518.121277,340.711792 504.408600,336.997620 
	C495.542847,334.596283 486.503937,332.815491 477.506927,330.926605 
	C474.024811,330.195587 473.975647,327.873596 474.347473,325.259491 
	C475.325195,318.386017 476.603027,311.548279 477.365570,304.652588 
	C478.765747,291.990448 479.826660,279.291229 481.135345,266.618439 
	C482.020142,258.050537 483.086914,249.501419 484.067200,240.054932 
	C484.122772,237.482407 484.183472,235.798859 484.567566,233.968079 
	C485.941254,230.882095 486.991516,227.943344 488.041809,225.004608 
	C487.875366,230.273407 487.873322,235.554291 487.487030,240.806915 
	C487.210236,244.570816 486.328857,248.285934 485.872986,252.041718 
	C483.920074,268.130127 482.033234,284.226532 480.099060,300.317230 
	C479.840790,302.465912 479.327393,304.588074 479.142181,306.740570 
	C478.524963,313.914368 478.003387,321.096375 477.408356,328.748077 
	C478.322510,328.843109 479.758026,329.040710 481.200287,329.135040 
	C508.929321,330.948639 530.925781,343.088287 546.600586,366.062103 
	C551.681946,373.509705 555.869629,381.507141 556.462585,390.954285 
	C556.854919,397.204102 559.161133,403.504150 558.616028,409.603485 
	C557.742981,419.372345 555.540771,429.069855 553.287354,438.653351 
	C551.382690,446.753784 549.623657,455.154846 545.964600,462.509613 
	C541.277222,471.931396 535.167847,480.745239 528.903198,489.255768 
	C522.126404,498.461884 512.735596,504.900635 502.759125,510.312195 
	C496.752258,513.570496 490.539001,516.468201 484.301636,519.267517 
	C482.730804,519.972473 480.711029,519.677002 478.479401,519.850830 
z"/>
<path fill="#FAA545" opacity="1.000000" stroke="none" 
	d="
M239.475128,557.813293 
	C234.305588,557.863708 229.505508,557.881287 224.334610,557.640869 
	C223.963791,557.382874 223.934570,556.889038 224.209198,556.700867 
	C228.523178,553.953613 232.436996,551.163940 236.627701,548.882935 
	C245.639740,543.977661 254.819870,539.382385 263.883667,534.570618 
	C273.235291,529.606018 282.201538,523.739136 291.935333,519.716248 
	C303.590271,514.899292 310.326965,505.676422 317.173492,495.725464 
	C320.917847,489.979279 324.483826,484.517059 328.049805,479.054840 
	C333.095398,469.678650 338.247955,460.357910 343.147675,450.906128 
	C346.237793,444.945068 348.949768,438.787994 352.221161,432.355835 
	C353.015778,431.993256 353.420593,431.993591 353.825409,431.993958 
	C351.586121,437.951874 349.847870,444.162109 347.001129,449.814087 
	C341.427216,460.880524 335.431183,471.748230 329.255493,482.494568 
	C318.506927,501.198151 305.031067,517.736145 288.977142,532.184570 
	C278.106323,541.968323 265.316498,548.522339 252.085419,554.283752 
	C248.228867,555.963074 243.936951,556.642578 239.475128,557.813293 
z"/>
<path fill="#D34B41" opacity="1.000000" stroke="none" 
	d="
M244.234833,271.003235 
	C248.721008,268.613220 253.264603,265.533112 258.258484,264.343933 
	C273.390839,260.740448 288.576477,259.612823 302.656555,268.339844 
	C314.096405,275.430420 318.387024,286.281708 318.362854,299.274353 
	C318.359802,300.914642 318.588745,302.555420 318.807831,304.543396 
	C315.642120,306.373383 312.261017,307.645081 309.142548,309.386963 
	C304.236542,312.127319 301.820557,311.057007 302.119446,305.368317 
	C302.466064,298.771698 300.584564,293.001373 297.629761,287.273285 
	C292.056122,276.468536 282.235565,272.026062 271.216797,270.120880 
	C264.616760,268.979675 257.711304,269.444824 250.946320,269.511108 
	C248.791702,269.532196 246.647247,270.592834 244.234833,271.003235 
z"/>
<path fill="#FFD76E" opacity="1.000000" stroke="none" 
	d="
M350.500793,245.776825 
	C343.150909,246.037430 335.868011,246.160400 328.614227,245.758163 
	C314.892426,244.997253 301.183350,243.989777 287.476410,242.983536 
	C270.471893,241.735245 253.474945,240.384232 236.277130,238.713104 
	C239.244904,235.639343 242.410278,232.930038 245.575638,230.220718 
	C245.893219,230.354782 246.220474,230.385406 247.146484,230.222412 
	C249.508545,229.134842 251.281540,228.137436 253.054550,227.140030 
	C253.504517,227.098297 253.954498,227.056564 254.661057,227.176605 
	C254.871246,227.509399 254.824829,227.680420 254.660889,228.079025 
	C253.197250,229.770874 251.851166,231.235168 250.505066,232.699463 
	C250.702698,233.135269 250.900314,233.571091 251.097946,234.006897 
	C259.195099,234.006897 267.293091,233.942383 275.388855,234.048065 
	C277.677826,234.077942 279.974945,234.522507 282.242371,234.923508 
	C285.796844,235.552109 289.311432,236.789200 292.874176,236.920364 
	C306.773682,237.432114 320.758942,236.027176 334.500916,239.730286 
	C336.903687,240.377777 339.923492,238.735489 342.658325,238.150742 
	C341.143341,235.934250 339.685425,233.675064 338.077789,231.527924 
	C337.610687,230.904022 336.715485,230.600601 335.758972,229.910324 
	C320.800690,221.147018 304.923462,218.922668 288.244476,220.664200 
	C283.537628,221.155670 278.779572,221.157135 274.117737,221.116119 
	C274.251465,220.674606 274.312469,220.500351 274.373444,220.326096 
	C286.166504,216.441589 298.313538,216.315216 310.261536,218.483276 
	C325.466675,221.242386 339.762482,226.372360 348.637421,240.478012 
	C349.560974,241.945862 349.945984,243.752579 350.500793,245.776825 
z"/>
<path fill="#FFEE91" opacity="1.000000" stroke="none" 
	d="
M274.045013,221.383347 
	C278.779572,221.157135 283.537628,221.155670 288.244476,220.664200 
	C304.923462,218.922668 320.800690,221.147018 335.698914,230.229919 
	C335.010254,231.282486 334.125549,232.199173 333.237854,232.202057 
	C325.599396,232.226822 317.957489,232.181000 310.323090,231.945953 
	C307.538879,231.860229 304.762299,231.265442 301.999481,230.800629 
	C296.685760,229.906647 291.416199,228.515823 286.069489,228.113434 
	C279.790680,227.640930 273.443909,228.143860 267.138489,227.907043 
	C265.386383,227.841248 263.676422,226.652878 261.976288,225.754120 
	C262.061707,225.232300 262.096008,224.933350 262.108307,224.631897 
	C262.576569,224.537704 263.044830,224.443512 264.145752,224.501556 
	C266.860413,223.667679 268.942413,222.681549 271.390900,221.582382 
	C272.519928,221.440674 273.282471,221.412018 274.045013,221.383347 
z"/>
<path fill="#FCB775" opacity="1.000000" stroke="none" 
	d="
M488.168335,224.593384 
	C486.991516,227.943344 485.941254,230.882095 484.508911,233.529907 
	C484.083771,231.488571 484.040710,229.738190 484.005554,227.524384 
	C484.003143,222.705215 483.992798,218.349426 483.995605,213.537994 
	C483.125793,208.359848 482.242828,203.637390 481.309265,198.494888 
	C480.922180,195.790833 481.050293,193.307724 480.171143,191.256287 
	C475.690918,180.802078 470.067719,171.263184 458.986694,166.315628 
	C450.001312,162.303772 441.359558,157.253830 430.544495,157.930771 
	C428.064423,157.927200 426.021057,157.942078 423.592285,157.949219 
	C421.913422,158.233047 420.619965,158.524582 420.456116,158.561508 
	C421.039459,163.925415 421.530457,168.440170 422.007141,173.327698 
	C421.988556,174.444443 421.984253,175.188400 421.979950,175.932373 
	C421.752869,175.939148 421.525757,175.945938 420.956238,175.948563 
	C419.555481,171.836700 418.497223,167.729004 417.265381,163.300201 
	C417.239227,154.156235 423.901642,150.645721 433.410400,154.115036 
	C436.456177,155.226288 439.778442,155.572098 442.966248,156.302948 
	C454.335297,158.909485 464.220551,164.179764 472.318298,172.665100 
	C478.382782,179.019897 482.323242,186.684586 484.800659,194.925858 
	C486.057892,199.108154 485.570465,203.814926 485.898804,209.153015 
	C486.664703,213.363770 487.403564,216.706070 488.142456,220.048386 
	C488.193237,221.426315 488.244049,222.804230 488.168335,224.593384 
z"/>
<path fill="#D34841" opacity="1.000000" stroke="none" 
	d="
M298.942993,430.096313 
	C298.940948,429.216797 298.938904,428.337311 298.923187,427.014435 
	C299.733490,426.369415 300.557495,426.167786 302.007965,426.185974 
	C304.679443,428.569580 308.937408,424.379639 309.825348,429.204773 
	C308.735718,431.307159 307.942749,433.218414 307.077087,435.071777 
	C307.004364,435.013855 307.143524,435.138428 306.794525,435.191956 
	C305.115540,436.634979 303.436066,437.827637 302.521637,439.451172 
	C299.856384,444.183380 297.496948,449.087799 294.868073,454.071594 
	C294.718536,454.218506 294.359772,454.435394 294.002136,454.414673 
	C290.954376,458.392548 288.264282,462.391144 285.460114,466.583344 
	C285.346039,466.776978 285.096436,467.150818 284.746521,467.165894 
	C283.695801,468.178131 282.994995,469.175323 282.283020,470.219330 
	C282.271881,470.266144 282.206268,470.336578 281.868103,470.363129 
	C276.182739,475.439117 270.810608,480.462494 265.500336,485.550415 
	C263.297760,487.660767 261.227509,489.909332 258.807373,491.996216 
	C258.288818,490.593536 258.059998,489.289673 257.831177,487.985779 
	C259.011047,487.102356 260.190887,486.218903 261.973938,485.073730 
	C263.254364,484.362701 264.122406,484.056122 264.580719,483.443115 
	C275.140350,469.320496 285.743896,455.228699 296.085052,440.947052 
	C297.671722,438.755768 298.010651,435.661072 298.931946,432.622314 
	C298.939148,431.539093 298.941040,430.817688 298.942993,430.096313 
z"/>
<path fill="#F8B654" opacity="1.000000" stroke="none" 
	d="
M238.643417,503.242004 
	C236.663116,506.779205 228.655899,508.830963 223.862686,506.378082 
	C218.520325,503.644196 213.365829,500.359467 208.624130,496.677551 
	C201.057312,490.802032 199.961472,474.901703 204.133408,466.415070 
	C205.545517,463.542511 206.055420,460.226379 207.123444,456.620636 
	C204.941071,454.325104 202.661057,451.254883 197.774170,454.685669 
	C195.404800,455.081360 193.683273,455.189606 191.607040,455.315430 
	C187.853897,457.204773 184.455444,459.076508 180.750702,460.981201 
	C180.036026,461.000641 179.627625,460.987091 179.219223,460.973572 
	C182.768585,454.452179 189.549438,453.260956 195.722916,451.440643 
	C198.628448,450.583923 201.998199,451.167603 205.148514,451.305847 
	C210.050552,451.520996 211.399551,453.294647 210.205795,458.028656 
	C208.927155,463.099396 206.841232,468.045624 206.211624,473.181549 
	C205.371994,480.030792 204.780792,487.186279 209.306793,493.291016 
	C213.961258,499.569092 219.835876,503.704193 228.791077,503.242065 
	C230.299057,503.269073 231.142319,503.158447 231.985580,503.047882 
	C234.058838,503.083221 236.132080,503.118530 238.643417,503.242004 
z"/>
<path fill="#FFEE91" opacity="1.000000" stroke="none" 
	d="
M179.042816,461.197510 
	C179.627625,460.987091 180.036026,461.000641 181.009537,461.208313 
	C181.558563,463.344116 182.177734,465.587189 181.422897,467.178436 
	C176.639038,477.263062 171.658051,487.259918 166.444489,497.128510 
	C165.693314,498.550354 163.340698,499.126190 161.729187,500.093567 
	C161.646118,497.310608 161.563049,494.527679 161.710358,491.125244 
	C162.894592,487.676575 163.848434,484.847443 164.802277,482.018280 
	C167.886749,476.737915 170.971237,471.457581 174.686493,465.959503 
	C176.164841,464.753113 177.012421,463.764404 177.860016,462.775726 
	C178.195480,462.324310 178.530945,461.872894 179.042816,461.197510 
z"/>
<path fill="#F8B654" opacity="1.000000" stroke="none" 
	d="
M353.886230,431.731506 
	C353.420593,431.993591 353.015778,431.993256 352.306274,432.001831 
	C352.393951,429.757202 352.786346,427.503571 353.344879,424.295776 
	C348.085358,424.295776 342.929871,424.019714 337.816742,424.367340 
	C331.753418,424.779572 325.720367,425.681274 319.687439,426.471832 
	C317.612549,426.743713 315.577454,427.319183 313.264984,427.463745 
	C313.334991,425.749756 313.664215,424.327942 313.993439,422.906158 
	C320.749207,420.694916 327.504974,418.483643 334.530457,416.521057 
	C333.537659,418.239807 332.275116,419.709869 331.094971,421.084015 
	C338.131165,420.645721 344.954254,420.042542 351.786102,419.917572 
	C353.545990,419.885376 355.333405,421.357513 357.108185,422.138611 
	C357.053040,422.882202 356.997894,423.625793 356.670349,424.974548 
	C355.602448,427.364502 354.806885,429.149261 354.011353,430.934021 
	C353.989899,431.112366 353.968445,431.290710 353.886230,431.731506 
z"/>
<path fill="#D54A42" opacity="1.000000" stroke="none" 
	d="
M298.926666,432.984192 
	C298.010651,435.661072 297.671722,438.755768 296.085052,440.947052 
	C285.743896,455.228699 275.140350,469.320496 264.580719,483.443115 
	C264.122406,484.056122 263.254364,484.362701 262.237244,484.886047 
	C264.488159,480.955658 266.951538,476.861603 269.693573,472.963562 
	C278.116180,460.990143 286.651001,449.095703 295.105011,437.144226 
	C295.340973,436.810638 295.155670,436.179108 295.422485,435.293762 
	C296.761017,434.262085 297.843842,433.623138 298.926666,432.984192 
z"/>
<path fill="#FDBA47" opacity="1.000000" stroke="none" 
	d="
M357.325806,422.056641 
	C355.333405,421.357513 353.545990,419.885376 351.786102,419.917572 
	C344.954254,420.042542 338.131165,420.645721 331.094971,421.084015 
	C332.275116,419.709869 333.537659,418.239807 334.886536,416.457916 
	C340.752411,414.133484 346.531921,412.120880 352.706909,410.446472 
	C353.538727,411.627777 353.856903,413.109161 354.429718,413.215240 
	C360.169830,414.278137 359.119171,417.983887 357.970215,421.789612 
	C357.970215,421.789612 357.543457,421.974670 357.325806,422.056641 
z"/>
<path fill="#F79D54" opacity="1.000000" stroke="none" 
	d="
M417.805145,384.244751 
	C411.387177,384.395538 406.328033,387.626709 401.250244,391.617126 
	C394.850586,394.426117 388.705414,397.010101 382.596252,399.676727 
	C376.598114,402.294922 370.636566,404.996979 364.304260,407.367554 
	C363.942993,406.680969 363.936432,406.289124 363.929901,405.897247 
	C369.511841,403.088898 375.066345,400.224243 380.682770,397.486603 
	C387.518921,394.154449 394.397949,390.909424 401.284424,387.682281 
	C402.165253,387.269501 403.202667,387.190887 404.873657,386.865204 
	C407.064056,385.823547 408.548340,384.874146 410.357849,383.853333 
	C413.125458,382.867126 415.567871,381.952393 418.007568,381.437805 
	C417.938263,382.640228 417.871704,383.442474 417.805145,384.244751 
z"/>
<path fill="#F56A4E" opacity="1.000000" stroke="none" 
	d="
M228.079315,433.469482 
	C235.122543,433.756104 242.224609,434.996155 249.311646,434.915558 
	C259.573944,434.798920 269.825348,433.726837 280.517609,433.081238 
	C279.265839,434.383820 277.599426,436.747101 275.886475,436.781311 
	C261.480316,437.069275 247.064163,437.022491 232.655807,436.785156 
	C231.131897,436.760040 229.638824,434.861938 228.079315,433.469482 
z"/>
<path fill="#F56A4E" opacity="1.000000" stroke="none" 
	d="
M245.174103,230.242462 
	C242.410278,232.930038 239.244904,235.639343 235.848694,238.620834 
	C231.007767,242.220520 226.397690,245.548019 221.469788,248.977814 
	C222.375198,247.268631 223.598419,245.457169 225.193451,243.260696 
	C226.171997,242.328110 226.778748,241.780518 227.385483,241.232910 
	C227.070251,240.994812 226.755020,240.756729 226.439774,240.518631 
	C225.963150,241.349426 225.486542,242.180222 225.009918,243.011032 
	C223.908585,243.258347 222.807266,243.505661 221.372406,243.784698 
	C223.985245,241.345261 226.638397,238.336182 229.948303,236.531998 
	C234.635803,233.976883 239.807709,232.310455 245.174103,230.242462 
z"/>
<path fill="#EF684C" opacity="1.000000" stroke="none" 
	d="
M257.524109,488.089172 
	C258.059998,489.289673 258.288818,490.593536 258.914581,492.098755 
	C259.311523,492.300079 259.525818,492.505219 259.391357,492.763977 
	C259.008423,493.550629 258.759979,494.078583 258.511566,494.606506 
	C258.511566,494.606506 258.184692,494.664429 257.708130,494.845001 
	C254.816986,496.678986 252.402390,498.332428 249.987808,499.985840 
	C249.571182,500.052277 249.154556,500.118713 248.070343,500.229675 
	C245.601822,500.865326 243.800903,501.456451 241.999969,502.047577 
	C243.052933,500.492493 243.828186,498.606415 245.211823,497.445435 
	C249.078873,494.200623 253.197662,491.255798 257.524109,488.089172 
z"/>
<path fill="#FAA545" opacity="1.000000" stroke="none" 
	d="
M363.580719,405.994934 
	C363.936432,406.289124 363.942993,406.680969 363.939697,407.361084 
	C362.161316,412.303314 360.392731,416.957367 358.297180,421.700500 
	C359.119171,417.983887 360.169830,414.278137 354.429718,413.215240 
	C353.856903,413.109161 353.538727,411.627777 353.074280,410.415588 
	C356.441284,408.728546 359.836426,407.410583 363.580719,405.994934 
z"/>
<path fill="#F56A4E" opacity="1.000000" stroke="none" 
	d="
M160.780090,377.352539 
	C163.963821,383.772644 166.962036,390.494537 169.996582,397.589600 
	C167.715775,394.224792 165.100204,390.632263 163.182938,386.699341 
	C161.829697,383.923401 161.423553,380.685791 160.780090,377.352539 
z"/>
<path fill="#F56A4E" opacity="1.000000" stroke="none" 
	d="
M298.931946,432.622345 
	C297.843842,433.623138 296.761017,434.262085 295.380981,435.000732 
	C293.727570,434.562775 292.406372,433.714172 291.007355,433.556702 
	C288.611237,433.287018 286.166443,433.449677 283.411316,433.241241 
	C288.154663,431.968994 293.228821,430.886322 298.622955,429.949951 
	C298.941040,430.817688 298.939148,431.539093 298.931946,432.622345 
z"/>
<path fill="#F56A4E" opacity="1.000000" stroke="none" 
	d="
M166.797913,308.246887 
	C165.155624,313.469177 163.271698,318.934784 161.173370,324.672180 
	C158.934769,318.136108 163.966309,313.728485 166.797913,308.246887 
z"/>
<path fill="#F56A4E" opacity="1.000000" stroke="none" 
	d="
M215.693680,246.070786 
	C211.607697,249.985413 207.158783,253.921158 202.370941,257.939392 
	C206.464920,254.045197 210.897827,250.068542 215.693680,246.070786 
z"/>
<path fill="#F56A4E" opacity="1.000000" stroke="none" 
	d="
M191.705170,268.123566 
	C188.910522,272.295258 185.783508,276.547089 182.351166,280.929016 
	C185.154831,276.773987 188.263809,272.488831 191.705170,268.123566 
z"/>
<path fill="#F56A4E" opacity="1.000000" stroke="none" 
	d="
M213.263580,430.218964 
	C217.120499,430.865112 221.229782,431.757660 225.639954,432.847351 
	C221.799194,432.184753 217.657593,431.325073 213.263580,430.218964 
z"/>
<path fill="#F56A4E" opacity="1.000000" stroke="none" 
	d="
M157.754379,363.412292 
	C158.884521,366.786957 159.823196,370.506592 160.817841,374.600220 
	C156.839828,374.766754 156.968567,371.816406 157.040222,369.015045 
	C157.085129,367.259125 157.380127,365.509644 157.754379,363.412292 
z"/>
<path fill="#F56A4E" opacity="1.000000" stroke="none" 
	d="
M173.580444,294.121765 
	C171.841797,297.636719 169.772934,301.241058 167.381195,304.962921 
	C169.122284,301.457336 171.186249,297.834229 173.580444,294.121765 
z"/>
<path fill="#F56A4E" opacity="1.000000" stroke="none" 
	d="
M186.141464,415.293274 
	C189.554611,417.477722 193.077316,419.976471 196.768127,422.764038 
	C193.374512,420.571136 189.812759,418.089355 186.141464,415.293274 
z"/>
<path fill="#F56A4E" opacity="1.000000" stroke="none" 
	d="
M274.117737,221.116119 
	C273.282471,221.412018 272.519928,221.440674 271.051605,221.461365 
	C268.319336,221.997665 266.292816,222.541946 264.266327,223.086212 
	C264.626801,219.161789 269.635925,217.442993 274.081909,220.072144 
	C274.312469,220.500351 274.251465,220.674606 274.117737,221.116119 
z"/>
<path fill="#F56A4E" opacity="1.000000" stroke="none" 
	d="
M160.533936,329.133606 
	C160.030273,332.138092 159.190201,335.238586 158.148102,338.636719 
	C156.665390,335.228210 155.791092,331.616394 160.533936,329.133606 
z"/>
<path fill="#F79D54" opacity="1.000000" stroke="none" 
	d="
M488.315735,219.652100 
	C487.403564,216.706070 486.664703,213.363770 485.917358,209.632050 
	C486.768921,212.580368 487.628998,215.918091 488.315735,219.652100 
z"/>
<path fill="#FFD76E" opacity="1.000000" stroke="none" 
	d="
M264.236267,223.405457 
	C266.292816,222.541946 268.319336,221.997665 270.685120,221.574402 
	C268.942413,222.681549 266.860413,223.667679 264.504944,224.509659 
	C264.223083,224.151901 264.214661,223.938309 264.236267,223.405457 
z"/>
<path fill="#F56A4E" opacity="1.000000" stroke="none" 
	d="
M170.114410,398.307800 
	C171.970276,400.082794 173.903107,402.194489 175.927826,404.636902 
	C174.076920,402.859894 172.134140,400.752197 170.114410,398.307800 
z"/>
<path fill="#F56A4E" opacity="1.000000" stroke="none" 
	d="
M252.778748,226.930710 
	C251.281540,228.137436 249.508545,229.134842 247.383224,230.143646 
	C247.789032,227.311844 249.134445,225.404572 252.778748,226.930710 
z"/>
<path fill="#F8B654" opacity="1.000000" stroke="none" 
	d="
M241.995697,502.303345 
	C243.800903,501.456451 245.601822,500.865326 247.761932,500.300995 
	C247.332245,503.246979 245.524460,504.350220 242.300629,503.252319 
	C242.008698,502.899689 242.000061,502.729401 241.995697,502.303345 
z"/>
<path fill="#F56A4E" opacity="1.000000" stroke="none" 
	d="
M180.602417,283.122650 
	C179.774597,284.870331 178.656189,286.739166 177.253296,288.779785 
	C178.083160,287.048981 179.197510,285.146362 180.602417,283.122650 
z"/>
<path fill="#FAA545" opacity="1.000000" stroke="none" 
	d="
M354.319427,430.835236 
	C354.806885,429.149261 355.602448,427.364502 356.608612,425.342712 
	C356.088654,426.982605 355.358063,428.859528 354.319427,430.835236 
z"/>
<path fill="#F56A4E" opacity="1.000000" stroke="none" 
	d="
M205.130447,426.503052 
	C206.644623,427.228943 208.248474,428.271179 209.965317,429.627991 
	C208.458923,428.901459 206.839523,427.860443 205.130447,426.503052 
z"/>
<path fill="#F56A4E" opacity="1.000000" stroke="none" 
	d="
M254.987305,227.081848 
	C255.280792,224.735107 255.582764,222.735458 258.630005,224.270599 
	C258.206116,225.568588 257.695587,226.412628 256.770264,227.287842 
	C255.829788,227.496490 255.304108,227.673965 254.778427,227.851456 
	C254.824829,227.680420 254.871246,227.509399 254.987305,227.081848 
z"/>
<path fill="#FFD76E" opacity="1.000000" stroke="none" 
	d="
M257.185059,227.256683 
	C257.695587,226.412628 258.206116,225.568588 258.873810,224.474701 
	C259.809845,224.276642 260.588715,224.328415 261.737946,224.506042 
	C262.096008,224.933350 262.061707,225.232300 261.681610,225.828201 
	C259.966888,226.503998 258.575989,226.880341 257.185059,227.256683 
z"/>
<path fill="#F56A4E" opacity="1.000000" stroke="none" 
	d="
M182.103882,411.322418 
	C183.296539,412.107391 184.568039,413.218536 185.930069,414.648315 
	C184.741318,413.860779 183.462006,412.754700 182.103882,411.322418 
z"/>
<path fill="#F56A4E" opacity="1.000000" stroke="none" 
	d="
M199.090210,424.271606 
	C199.887390,424.499634 200.747894,425.014618 201.773346,425.791138 
	C201.010040,425.554657 200.081772,425.056580 199.090210,424.271606 
z"/>
<path fill="#F56A4E" opacity="1.000000" stroke="none" 
	d="
M179.103943,408.313049 
	C179.956146,408.784607 180.888321,409.571808 181.911606,410.667175 
	C181.063110,410.193115 180.123520,409.410919 179.103943,408.313049 
z"/>
<path fill="#F56A4E" opacity="1.000000" stroke="none" 
	d="
M176.109573,405.298096 
	C176.962555,405.773285 177.892624,406.566223 178.912537,407.667603 
	C178.063812,407.189331 177.125244,406.402588 176.109573,405.298096 
z"/>
<path fill="#F56A4E" opacity="1.000000" stroke="none" 
	d="
M194.704315,265.111481 
	C194.236786,265.974731 193.449982,266.915100 192.353409,267.946381 
	C192.824097,267.087708 193.604568,266.138153 194.704315,265.111481 
z"/>
<path fill="#F56A4E" opacity="1.000000" stroke="none" 
	d="
M201.703125,258.110535 
	C201.232239,258.970703 200.442444,259.908173 199.342728,260.937378 
	C199.816605,260.082031 200.600418,259.134949 201.703125,258.110535 
z"/>
<path fill="#F56A4E" opacity="1.000000" stroke="none" 
	d="
M197.715027,262.111084 
	C197.242004,262.972046 196.448792,263.908997 195.344940,264.934662 
	C195.821152,264.077972 196.608002,263.132507 197.715027,262.111084 
z"/>
<path fill="#FFE67E" opacity="1.000000" stroke="none" 
	d="
M177.639786,462.695160 
	C177.012421,463.764404 176.164841,464.753113 174.956177,465.768616 
	C175.279449,464.887085 175.963806,463.978699 176.812546,462.764923 
	C176.976929,462.459503 177.419556,462.614594 177.639786,462.695160 
z"/>
<path fill="#EF684C" opacity="1.000000" stroke="none" 
	d="
M231.765869,502.871338 
	C231.142319,503.158447 230.299057,503.269073 229.233826,503.218018 
	C229.856613,502.935883 230.701385,502.815369 231.765869,502.871338 
z"/>
<path fill="#FC5F4F" opacity="1.000000" stroke="none" 
	d="
M462.689392,467.031830 
	C462.596252,466.517914 462.503113,466.004028 462.538879,464.750244 
	C462.766846,453.584473 462.877808,443.158691 462.941833,432.732605 
	C462.946808,431.923004 462.622803,431.111328 462.451691,430.300629 
	C462.452942,429.769226 462.454193,429.237793 462.760803,428.110107 
	C464.374084,420.244629 465.742645,412.985535 466.951813,405.699982 
	C467.302612,403.586365 466.985809,401.362061 467.335663,399.248169 
	C469.180542,388.100983 471.140747,376.972900 473.521301,365.869537 
	C479.327881,365.924347 484.674103,365.947784 490.219879,366.276794 
	C493.469666,370.108032 497.161743,369.280121 501.253235,368.141846 
	C502.073151,368.183228 502.541473,368.210571 503.107605,368.547424 
	C507.458862,371.233459 511.712341,373.609955 516.229126,376.152496 
	C517.333374,377.221771 518.174316,378.125000 519.023560,379.406616 
	C521.367004,383.850616 523.702209,387.916168 526.053711,392.304871 
	C526.072998,393.059326 526.075928,393.490662 526.061035,394.331970 
	C527.042908,397.155334 528.042603,399.568726 529.051453,402.451843 
	C529.055359,411.286407 529.050110,419.651306 528.734192,428.218109 
	C524.233826,432.000397 526.637939,436.808563 526.075867,441.387817 
	C526.071350,442.145142 526.060181,442.577881 525.798828,443.260559 
	C524.662720,445.433594 523.841431,447.389709 522.879944,449.274231 
	C518.195190,458.456238 513.450928,467.607910 508.781128,476.797455 
	C507.756592,478.813629 506.949463,480.940308 506.035614,483.021057 
	C506.029022,483.026062 506.019440,483.044586 505.691650,483.127289 
	C503.495819,485.059601 501.417389,486.743134 499.800476,488.791016 
	C495.514801,494.219025 489.753174,494.170746 484.396118,492.040161 
	C478.221619,489.584473 472.942413,485.535065 469.869781,479.082703 
	C467.868103,474.879181 465.109100,471.036285 462.689392,467.031830 
z"/>
<path fill="#D34D42" opacity="1.000000" stroke="none" 
	d="
M423.344543,251.944473 
	C423.460297,251.641144 423.507507,251.327484 423.695801,250.537140 
	C425.838623,244.693405 427.771881,239.316040 429.705139,233.938690 
	C429.791504,233.511917 429.877869,233.085144 430.298828,232.154236 
	C431.742340,229.308136 432.720551,226.890747 434.011505,224.653839 
	C434.732727,223.404175 435.973236,222.454193 436.979736,221.369156 
	C437.641846,222.540436 438.871643,223.711487 438.872101,224.883041 
	C438.874786,231.508011 438.651489,238.136047 438.369537,244.757248 
	C438.137848,250.198868 437.717346,255.632446 437.380493,261.069580 
	C437.271454,262.452545 437.162384,263.835480 436.888184,265.963501 
	C434.609283,279.128967 432.410095,291.535614 430.414978,303.975037 
	C429.291534,310.979645 428.504761,318.038208 427.566284,325.072479 
	C427.433014,326.141479 427.299744,327.210449 426.960815,328.967834 
	C425.771881,338.313477 420.712036,342.643494 411.997314,342.981201 
	C411.644531,339.853577 411.057281,337.010864 411.484467,334.329712 
	C413.300385,322.931610 415.432526,311.584106 417.417603,300.212616 
	C418.527893,293.852325 419.942078,287.515900 420.549194,281.105255 
	C421.149078,274.770508 420.905243,268.355804 421.066101,261.638489 
	C421.202209,260.859772 421.303741,260.418732 421.707947,259.872131 
	C422.566467,258.423950 423.122284,257.081329 423.683594,255.413971 
	C423.574249,254.040985 423.459381,252.992737 423.344543,251.944473 
z"/>
<path fill="#FA634F" opacity="1.000000" stroke="none" 
	d="
M421.031555,261.976196 
	C420.905243,268.355804 421.149078,274.770508 420.549194,281.105255 
	C419.942078,287.515900 418.527893,293.852325 417.417603,300.212616 
	C415.432526,311.584106 413.300385,322.931610 411.484467,334.329712 
	C411.057281,337.010864 411.644531,339.853577 411.835632,343.265991 
	C409.273407,345.606628 406.640656,347.303253 404.007904,348.999878 
	C403.577087,349.059875 403.146301,349.119904 402.034485,349.235291 
	C397.766479,350.805634 394.077789,352.122864 390.625000,353.898743 
	C387.908691,355.295807 386.329712,355.025635 385.592682,351.940948 
	C385.682007,351.505310 385.771332,351.069641 386.171112,350.146301 
	C387.081238,348.097870 387.680908,346.537140 388.280609,344.976440 
	C388.317535,344.626129 388.354462,344.275787 388.626160,343.473328 
	C389.695953,341.005066 390.530945,338.989014 391.365936,336.972931 
	C391.398773,336.632629 391.431610,336.292297 391.694702,335.492340 
	C392.882538,333.005768 393.840118,330.978821 394.797699,328.951904 
	C394.868591,328.520874 394.939453,328.089844 395.248901,327.064514 
	C397.428558,320.961975 399.369568,315.453735 401.310608,309.945496 
	C401.345886,309.608337 401.381165,309.271210 401.662537,308.524780 
	C402.704163,306.401703 403.499664,304.687927 404.295135,302.974121 
	C404.335602,302.337585 404.376068,301.701019 404.657928,300.554382 
	C405.808807,298.335358 406.718323,296.626373 407.627808,294.917419 
	C407.763489,294.195465 407.899170,293.473541 408.343506,292.201965 
	C409.323364,290.076447 409.994568,288.500580 410.665771,286.924683 
	C410.740234,286.492493 410.814697,286.060333 411.145691,285.037811 
	C413.454498,278.940521 415.506714,273.433594 417.558929,267.926636 
	C417.637970,267.486755 417.717041,267.046875 418.079346,266.081360 
	C419.252258,264.362549 420.141876,263.169373 421.031555,261.976196 
z"/>
<path fill="#EF684C" opacity="1.000000" stroke="none" 
	d="
M473.061005,365.838196 
	C471.140747,376.972900 469.180542,388.100983 467.335663,399.248169 
	C466.985809,401.362061 467.302612,403.586365 466.951813,405.699982 
	C465.742645,412.985535 464.374084,420.244629 462.828217,427.716614 
	C462.741608,424.124908 462.639130,420.300049 463.087952,416.541046 
	C465.094757,399.733002 467.176483,382.932373 469.485565,366.164124 
	C469.732727,364.369415 471.489227,362.669495 472.831604,361.184143 
	C473.551239,360.387817 474.839783,359.844391 475.941101,359.693390 
	C491.823425,357.515289 507.958282,355.523346 522.949768,362.722382 
	C533.041626,367.568573 540.168396,375.762909 543.248230,387.263763 
	C547.267883,402.273773 546.577637,417.035522 543.587402,432.073914 
	C540.452881,447.838287 533.327148,461.640167 524.430542,474.712585 
	C523.138672,476.610840 521.361694,478.178955 519.418091,479.960510 
	C519.026978,480.021179 518.819519,479.820862 518.901733,479.480225 
	C521.337708,475.554779 523.867981,472.071838 526.008972,468.364105 
	C530.623962,460.372131 535.299377,452.492859 536.391113,442.906952 
	C537.341431,434.562744 540.830017,426.314209 540.643066,418.081390 
	C540.393616,407.095673 540.940186,395.456116 535.659546,385.334900 
	C531.890503,378.110809 526.835510,371.414246 521.482849,365.237579 
	C519.612183,363.079010 515.030518,363.446930 511.869781,362.198273 
	C499.183380,357.186340 486.803894,360.304779 474.428528,363.421936 
	C473.809113,363.577942 473.509552,365.003693 473.061005,365.838196 
z"/>
<path fill="#F56A4E" opacity="1.000000" stroke="none" 
	d="
M205.767090,411.084991 
	C191.570282,407.806671 181.140381,399.534607 173.883896,387.047913 
	C164.779892,371.381989 166.120819,355.345612 172.126953,339.120728 
	C172.580246,337.896271 172.964691,336.553436 172.960709,335.266937 
	C172.922256,322.842560 177.036560,311.523499 182.451889,300.654266 
	C186.929031,291.668091 191.795258,282.863586 196.818497,274.168884 
	C198.351242,271.515869 200.976212,269.493805 203.381042,267.049377 
	C202.605347,268.895172 201.774246,271.039978 200.457489,272.826935 
	C191.661713,284.763580 184.764496,297.575043 180.066544,311.749756 
	C175.455811,325.661285 172.785538,339.713531 174.286179,354.267212 
	C176.437119,375.127594 185.805328,392.451538 201.396561,406.436981 
	C202.137482,407.101532 202.839691,407.809265 203.944824,408.971619 
	C204.808823,409.992584 205.287949,410.538788 205.767090,411.084991 
z"/>
<path fill="#FFDD6C" opacity="1.000000" stroke="none" 
	d="
M422.096802,176.250458 
	C421.984253,175.188400 421.988556,174.444443 422.381317,173.350159 
	C424.388794,173.715805 426.321533,174.080231 427.578522,175.201920 
	C440.750244,186.955795 451.529266,201.191467 466.420288,211.253662 
	C473.030426,215.720291 478.183289,222.343491 483.997620,227.987793 
	C484.040710,229.738190 484.083771,231.488571 484.185486,233.677139 
	C484.183472,235.798859 484.122772,237.482407 484.047058,239.589645 
	C480.243713,237.730453 476.085815,235.885651 472.747589,233.069275 
	C466.665802,227.938126 461.235321,222.041306 455.233368,216.807693 
	C446.083313,208.829056 439.708893,198.741837 432.895355,188.918808 
	C429.810822,184.471878 425.802734,180.665497 422.096802,176.250458 
z"/>
<path fill="#F8B654" opacity="1.000000" stroke="none" 
	d="
M404.274261,349.180847 
	C406.640656,347.303253 409.273407,345.606628 412.067841,343.625183 
	C420.712036,342.643494 425.771881,338.313477 426.994446,329.372131 
	C428.460419,333.404297 428.607574,337.360291 425.534851,341.308380 
	C424.196747,343.027710 424.381012,345.968018 423.977448,348.371216 
	C423.082642,353.700378 422.253265,359.040527 421.005127,364.392944 
	C420.088928,363.227264 419.564789,362.044830 418.585999,359.836670 
	C415.455353,368.653290 412.743988,376.289001 410.032654,383.924744 
	C408.548340,384.874146 407.064056,385.823547 405.249207,386.825500 
	C406.548706,382.734192 408.223633,378.607300 409.797211,374.442078 
	C411.665863,369.495789 413.454926,364.519318 415.264526,359.550842 
	C417.010529,354.756989 418.738678,349.956573 419.767303,343.809387 
	C415.890015,345.331848 412.023254,346.882019 408.129028,348.359741 
	C406.972656,348.798553 405.738922,349.033478 404.274261,349.180847 
z"/>
<path fill="#EF684C" opacity="1.000000" stroke="none" 
	d="
M462.593628,467.381897 
	C465.109100,471.036285 467.868103,474.879181 469.869781,479.082703 
	C472.942413,485.535065 478.221619,489.584473 484.396118,492.040161 
	C489.753174,494.170746 495.514801,494.219025 499.800476,488.791016 
	C501.417389,486.743134 503.495819,485.059601 505.609375,483.463379 
	C504.445740,486.146057 503.036591,488.575348 500.857269,492.332397 
	C505.763275,489.668335 509.297455,487.749207 512.932190,485.934723 
	C513.032715,486.039398 513.232727,486.249664 513.232727,486.249664 
	C501.210358,499.691223 488.280334,499.676208 475.422974,488.973999 
	C468.832733,483.488403 464.789032,476.042511 462.593628,467.381897 
z"/>
<path fill="#F8B654" opacity="1.000000" stroke="none" 
	d="
M437.688477,260.933899 
	C437.717346,255.632446 438.137848,250.198868 438.369537,244.757248 
	C438.651489,238.136047 438.874786,231.508011 438.872101,224.883041 
	C438.871643,223.711487 437.641846,222.540436 436.979736,221.369156 
	C435.973236,222.454193 434.732727,223.404175 434.011505,224.653839 
	C432.720551,226.890747 431.742340,229.308136 430.335632,231.829468 
	C431.738953,226.816681 433.322968,221.580231 435.254059,216.475067 
	C435.583771,215.603409 437.784576,214.549744 438.439331,214.890381 
	C439.540009,215.463028 440.762787,217.080276 440.774567,218.269562 
	C440.898376,230.747910 440.895935,243.230774 440.627136,255.705917 
	C440.590179,257.421448 438.913818,259.101654 437.688477,260.933899 
z"/>
<path fill="#F8B654" opacity="1.000000" stroke="none" 
	d="
M427.831879,324.892944 
	C428.504761,318.038208 429.291534,310.979645 430.414978,303.975037 
	C432.410095,291.535614 434.609283,279.128967 436.930756,266.379181 
	C437.110596,270.770691 437.341553,275.511841 436.974457,280.206238 
	C436.671295,284.083527 435.614197,287.897736 434.973846,291.753632 
	C433.625397,299.873291 432.459991,308.026031 430.946808,316.114197 
	C430.396545,319.055328 429.069885,321.851257 427.831879,324.892944 
z"/>
<path fill="#FDBA47" opacity="1.000000" stroke="none" 
	d="
M410.357849,383.853333 
	C412.743988,376.289001 415.455353,368.653290 418.585999,359.836670 
	C419.564789,362.044830 420.088928,363.227264 420.790710,364.680115 
	C420.968384,367.684143 420.968384,370.417816 420.782227,373.863403 
	C420.410645,375.388153 420.225311,376.200958 420.039948,377.013763 
	C420.033264,378.077393 420.026611,379.141052 419.681030,380.606140 
	C418.898193,381.017578 418.454254,381.027588 418.010315,381.037628 
	C415.567871,381.952393 413.125458,382.867126 410.357849,383.853333 
z"/>
<path fill="#EF684C" opacity="1.000000" stroke="none" 
	d="
M462.199951,430.566406 
	C462.622803,431.111328 462.946808,431.923004 462.941833,432.732605 
	C462.877808,443.158691 462.766846,453.584473 462.543213,464.357666 
	C457.511322,457.277161 459.261902,449.011597 459.672607,441.000031 
	C459.847900,437.580872 461.155304,434.219727 462.199951,430.566406 
z"/>
<path fill="#EF684C" opacity="1.000000" stroke="none" 
	d="
M293.713318,426.529663 
	C290.293152,427.772736 286.610443,429.607513 282.842102,429.804413 
	C273.920715,430.270477 264.952576,430.145508 256.016693,429.852295 
	C253.181534,429.759277 250.388596,428.379608 247.329361,427.124573 
	C247.082397,426.660400 247.109283,426.182617 247.109283,426.182617 
	C247.524857,426.162048 247.940430,426.141479 248.999420,426.295776 
	C263.129242,428.974976 276.591644,429.210938 290.018066,426.043762 
	C291.149323,426.154785 292.280579,426.265839 293.713318,426.529663 
z"/>
<path fill="#F8B654" opacity="1.000000" stroke="none" 
	d="
M246.799164,425.947266 
	C247.109283,426.182617 247.082397,426.660400 247.056061,426.898438 
	C233.540558,425.918610 220.980728,422.141449 210.007294,413.403870 
	C215.093994,415.122162 220.210419,417.362213 225.478180,419.158447 
	C232.419601,421.525360 239.479858,423.543701 246.799164,425.947266 
z"/>
<path fill="#F8B654" opacity="1.000000" stroke="none" 
	d="
M289.666931,425.827881 
	C276.591644,429.210938 263.129242,428.974976 249.310150,426.266602 
	C251.062119,425.727722 253.143402,425.130676 255.232056,425.103699 
	C263.801483,424.993073 272.373505,425.011322 280.943756,425.080780 
	C283.735687,425.103455 286.525208,425.426422 289.666931,425.827881 
z"/>
<path fill="#F79D54" opacity="1.000000" stroke="none" 
	d="
M414.735107,415.892822 
	C413.428162,408.260895 414.029083,400.575317 417.336151,392.918213 
	C416.717865,400.328094 415.855042,407.989685 414.735107,415.892822 
z"/>
<path fill="#F8B654" opacity="1.000000" stroke="none" 
	d="
M385.338440,352.122070 
	C386.329712,355.025635 387.908691,355.295807 390.625000,353.898743 
	C394.077789,352.122864 397.766479,350.805634 401.717041,349.311707 
	C398.390533,354.397003 392.463989,355.222260 387.093079,356.628357 
	C384.737488,357.245056 383.275085,354.950043 385.338440,352.122070 
z"/>
<path fill="#EF684C" opacity="1.000000" stroke="none" 
	d="
M313.693359,422.891724 
	C313.664215,424.327942 313.334991,425.749756 312.907379,427.521667 
	C312.588135,428.397125 312.367340,428.922455 311.823853,429.696167 
	C311.320648,429.927948 311.140167,429.911377 310.827240,429.740784 
	C310.518890,429.380676 310.327972,429.189636 310.122040,429.013641 
	C308.937408,424.379639 304.679443,428.569580 302.331299,426.198853 
	C302.028168,425.991943 301.994659,425.526855 302.408447,425.308594 
	C305.358917,424.192810 307.895569,423.295319 310.432251,422.397827 
	C311.419250,422.557648 312.406250,422.717499 313.693359,422.891724 
z"/>
<path fill="#F8B654" opacity="1.000000" stroke="none" 
	d="
M429.382172,234.060242 
	C427.771881,239.316040 425.838623,244.693405 423.642242,250.303894 
	C423.761505,244.560532 425.159912,238.936890 429.382172,234.060242 
z"/>
<path fill="#F8B654" opacity="1.000000" stroke="none" 
	d="
M417.290771,268.086487 
	C415.506714,273.433594 413.454498,278.940521 411.170166,284.709686 
	C410.694672,278.570343 413.061707,273.118408 417.290771,268.086487 
z"/>
<path fill="#F8B654" opacity="1.000000" stroke="none" 
	d="
M401.046753,310.196838 
	C399.369568,315.453735 397.428558,320.961975 395.268127,326.737274 
	C396.198273,322.750366 397.254578,318.467712 398.550842,314.258942 
	C398.972626,312.889465 400.021057,311.712952 401.046753,310.196838 
z"/>
<path fill="#F56A4E" opacity="1.000000" stroke="none" 
	d="
M208.438751,261.953613 
	C211.178116,258.749664 214.234268,255.458405 217.622162,252.120117 
	C214.887772,255.337494 211.821655,258.601929 208.438751,261.953613 
z"/>
<path fill="#EF684C" opacity="1.000000" stroke="none" 
	d="
M519.131104,480.120911 
	C517.436279,482.132294 515.637268,484.043915 513.535522,486.102600 
	C513.232727,486.249664 513.032715,486.039398 513.024902,485.608826 
	C514.951233,483.392456 516.885376,481.606628 518.819519,479.820862 
	C518.819519,479.820862 519.026978,480.021179 519.131104,480.120911 
z"/>
<path fill="#F8B654" opacity="1.000000" stroke="none" 
	d="
M309.981903,422.307983 
	C307.895569,423.295319 305.358917,424.192810 302.428345,425.076294 
	C303.281982,420.815216 306.697815,422.283905 309.981903,422.307983 
z"/>
<path fill="#F8B654" opacity="1.000000" stroke="none" 
	d="
M422.999817,252.126129 
	C423.459381,252.992737 423.574249,254.040985 423.424347,255.557587 
	C422.268860,256.829620 421.378143,257.633301 420.487366,258.437012 
	C421.209961,256.393921 421.932526,254.350861 422.999817,252.126129 
z"/>
<path fill="#F8B654" opacity="1.000000" stroke="none" 
	d="
M394.470703,329.062622 
	C393.840118,330.978821 392.882538,333.005768 391.659607,335.237762 
	C392.310760,333.352997 393.227203,331.263153 394.470703,329.062622 
z"/>
<path fill="#F8B654" opacity="1.000000" stroke="none" 
	d="
M421.066101,261.638489 
	C420.141876,263.169373 419.252258,264.362549 418.105499,265.747070 
	C418.450165,264.055420 419.051971,262.172394 420.242920,260.122192 
	C421.023193,259.962585 421.214233,259.970154 421.405304,259.977692 
	C421.303741,260.418732 421.202209,260.859772 421.066101,261.638489 
z"/>
<path fill="#F8B654" opacity="1.000000" stroke="none" 
	d="
M391.025452,337.148041 
	C390.530945,338.989014 389.695953,341.005066 388.596375,343.210205 
	C389.116211,341.373871 389.900604,339.348511 391.025452,337.148041 
z"/>
<path fill="#F8B654" opacity="1.000000" stroke="none" 
	d="
M410.373718,287.032349 
	C409.994568,288.500580 409.323364,290.076447 408.370636,291.835388 
	C408.753326,290.392273 409.417480,288.766144 410.373718,287.032349 
z"/>
<path fill="#F8B654" opacity="1.000000" stroke="none" 
	d="
M418.007568,381.437805 
	C418.454254,381.027588 418.898193,381.017578 419.675415,381.004944 
	C419.590302,382.612610 419.171906,384.222900 418.440308,385.928406 
	C418.025391,385.632141 417.923706,385.240601 417.813599,384.546936 
	C417.871704,383.442474 417.938263,382.640228 418.007568,381.437805 
z"/>
<path fill="#F8B654" opacity="1.000000" stroke="none" 
	d="
M387.975403,345.132324 
	C387.680908,346.537140 387.081238,348.097870 386.206482,349.814514 
	C386.511017,348.409729 387.090576,346.848969 387.975403,345.132324 
z"/>
<path fill="#F8B654" opacity="1.000000" stroke="none" 
	d="
M403.968018,303.149841 
	C403.499664,304.687927 402.704163,306.401703 401.630188,308.271973 
	C402.114777,306.727539 402.877838,305.026550 403.968018,303.149841 
z"/>
<path fill="#F8B654" opacity="1.000000" stroke="none" 
	d="
M206.043716,411.288696 
	C205.287949,410.538788 204.808823,409.992584 204.161407,409.226929 
	C205.931519,410.133942 207.869919,411.260406 209.870132,412.741943 
	C208.728073,412.562134 207.524216,412.027283 206.043716,411.288696 
z"/>
<path fill="#F56A4E" opacity="1.000000" stroke="none" 
	d="
M204.226349,266.651031 
	C205.061615,265.179047 206.221909,263.691315 207.710938,262.162476 
	C206.876907,263.625977 205.714142,265.130615 204.226349,266.651031 
z"/>
<path fill="#F8B654" opacity="1.000000" stroke="none" 
	d="
M407.322968,295.039001 
	C406.718323,296.626373 405.808807,298.335358 404.632019,300.236206 
	C405.249176,298.672241 406.133636,296.916412 407.322968,295.039001 
z"/>
<path fill="#FA634F" opacity="1.000000" stroke="none" 
	d="
M421.707947,259.872131 
	C421.214233,259.970154 421.023193,259.962585 420.546631,259.948303 
	C420.308136,259.605652 420.355103,259.269775 420.444733,258.685425 
	C421.378143,257.633301 422.268860,256.829620 423.418884,255.882294 
	C423.122284,257.081329 422.566467,258.423950 421.707947,259.872131 
z"/>
<path fill="#FCB775" opacity="1.000000" stroke="none" 
	d="
M418.984802,182.806549 
	C419.181702,181.610550 419.647705,180.288345 420.380188,178.791275 
	C420.182373,179.971039 419.718140,181.325684 418.984802,182.806549 
z"/>
<path fill="#F56A4E" opacity="1.000000" stroke="none" 
	d="
M218.369690,251.878830 
	C218.856827,251.039841 219.640518,250.125793 220.751770,249.181732 
	C220.274979,250.035736 219.470612,250.919754 218.369690,251.878830 
z"/>
<path fill="#F8B654" opacity="1.000000" stroke="none" 
	d="
M420.297882,376.903137 
	C420.225311,376.200958 420.410645,375.388153 420.773376,374.317871 
	C420.819061,374.971069 420.687439,375.881805 420.297882,376.903137 
z"/>
<path fill="#FCB775" opacity="1.000000" stroke="none" 
	d="
M415.729919,192.792328 
	C415.777771,192.304413 416.047913,191.709137 416.573792,191.034637 
	C416.537109,191.531921 416.244690,192.108459 415.729919,192.792328 
z"/>
<path fill="#FEC851" opacity="1.000000" stroke="none" 
	d="
M327.643921,479.073761 
	C324.483826,484.517059 320.917847,489.979279 316.797577,495.802979 
	C313.131531,497.263885 309.849457,498.035065 306.948395,499.540436 
	C302.721344,501.733978 298.877167,504.659180 294.673950,506.906219 
	C287.824615,510.567780 280.721069,513.757385 273.904114,517.474976 
	C267.394684,521.024902 261.265045,525.283081 254.700287,528.717224 
	C242.697678,534.995972 230.483871,540.870056 218.386261,546.968689 
	C213.873032,549.243896 209.438477,551.675232 204.595627,554.028931 
	C203.475876,554.033752 202.728546,554.044983 201.649185,553.862305 
	C198.955231,552.182678 194.780197,554.629639 193.778839,550.192871 
	C204.649673,540.517517 218.077805,535.074829 230.542633,528.049377 
	C241.773148,521.719604 253.069107,515.498779 264.456238,509.456024 
	C275.581116,503.552368 286.883179,497.983521 298.055420,492.167755 
	C302.595459,489.804474 306.846588,486.837158 311.504181,484.761871 
	C316.582520,482.499084 321.979767,480.951874 327.643921,479.073761 
z"/>
<path fill="#FFDF71" opacity="1.000000" stroke="none" 
	d="
M191.961731,455.297852 
	C193.683273,455.189606 195.404800,455.081360 197.557434,454.964600 
	C195.194519,461.815308 192.735092,468.835236 189.533905,475.498871 
	C183.646210,487.754791 177.373474,499.827576 171.136963,511.912567 
	C169.873199,514.361450 168.059372,516.526428 166.095581,518.600098 
	C164.753693,515.668640 163.815353,512.959412 163.119171,509.976685 
	C164.051300,508.993164 164.948578,508.394775 165.400040,507.556366 
	C171.804611,495.662048 178.254898,483.790131 184.459229,471.791321 
	C187.229889,466.433014 189.477005,460.804016 191.961731,455.297852 
z"/>
<path fill="#F79D54" opacity="1.000000" stroke="none" 
	d="
M162.877014,510.250214 
	C163.815353,512.959412 164.753693,515.668640 165.769669,518.726013 
	C168.001389,524.138428 169.430801,529.705261 172.502075,534.133362 
	C175.955719,539.112732 180.657211,543.335266 185.292770,547.334290 
	C187.229645,549.005127 190.395798,549.250977 193.390930,550.168823 
	C194.780197,554.629639 198.955231,552.182678 201.655014,554.216187 
	C201.998520,555.471741 202.004181,556.179443 202.009857,556.887207 
	C185.861633,552.591614 173.660324,543.353577 166.853821,527.894043 
	C164.431946,522.393311 163.094193,516.415283 161.745514,510.372864 
	C162.445328,510.143860 162.661179,510.197052 162.877014,510.250214 
z"/>
<path fill="#F8B654" opacity="1.000000" stroke="none" 
	d="
M310.959717,429.894836 
	C311.140167,429.911377 311.320648,429.927948 311.771179,429.977173 
	C311.014984,432.766876 310.425476,435.802307 308.879211,438.227783 
	C304.542572,445.030334 299.883301,451.632935 295.181549,458.192688 
	C294.094025,459.709900 292.328857,460.741425 290.645233,461.722839 
	C291.729889,459.111267 293.044830,456.773346 294.359772,454.435394 
	C294.359772,454.435394 294.718536,454.218506 295.105530,453.850555 
	C299.376160,447.367859 303.259827,441.253143 307.143524,435.138428 
	C307.143524,435.138428 307.004364,435.013855 307.361023,434.928101 
	C308.798370,433.193176 309.879028,431.544006 310.959717,429.894836 
z"/>
<path fill="#EF684C" opacity="1.000000" stroke="none" 
	d="
M259.204315,492.197571 
	C261.227509,489.909332 263.297760,487.660767 265.500336,485.550415 
	C270.810608,480.462494 276.182739,475.439117 281.746918,470.663696 
	C280.525726,473.210480 279.087555,475.483246 277.649384,477.755981 
	C277.402283,477.904205 277.191284,478.092865 276.614197,478.614990 
	C275.506500,479.621094 274.801025,480.334076 274.095551,481.047089 
	C274.095551,481.047089 274.050140,481.049866 273.754456,481.197235 
	C272.570404,482.476685 271.682007,483.608795 270.793640,484.740906 
	C270.793640,484.740906 270.756897,484.756409 270.429504,484.864441 
	C267.714813,486.966888 265.327545,488.961273 262.940277,490.955658 
	C262.940277,490.955658 262.516052,491.069122 262.026398,491.214355 
	C260.866425,491.741455 260.196106,492.123322 259.525818,492.505219 
	C259.525818,492.505219 259.311523,492.300079 259.204315,492.197571 
z"/>
<path fill="#EF684C" opacity="1.000000" stroke="none" 
	d="
M294.002136,454.414673 
	C293.044830,456.773346 291.729889,459.111267 290.296143,461.761932 
	C290.056702,462.416077 289.936066,462.757507 289.517487,463.511902 
	C288.743927,464.527191 288.268311,465.129456 287.792664,465.731750 
	C287.792664,465.731750 287.742065,465.705048 287.450012,465.774567 
	C286.630005,466.025940 286.102081,466.207825 285.574188,466.389709 
	C288.264282,462.391144 290.954376,458.392548 294.002136,454.414673 
z"/>
<path fill="#F8B654" opacity="1.000000" stroke="none" 
	d="
M285.460114,466.583313 
	C286.102081,466.207825 286.630005,466.025940 287.432556,465.797241 
	C284.596130,469.739929 281.485046,473.729431 278.011658,477.737457 
	C279.087555,475.483246 280.525726,473.210480 282.085083,470.637146 
	C282.206268,470.336578 282.271881,470.266144 282.560913,470.101349 
	C283.598755,469.007965 284.347595,468.079407 285.096436,467.150818 
	C285.096436,467.150818 285.346039,466.776978 285.460114,466.583313 
z"/>
<path fill="#F8B654" opacity="1.000000" stroke="none" 
	d="
M250.239563,500.133850 
	C252.402390,498.332428 254.816986,496.678986 257.564026,494.927429 
	C255.428101,496.646790 252.959717,498.464355 250.239563,500.133850 
z"/>
<path fill="#F8B654" opacity="1.000000" stroke="none" 
	d="
M263.305359,490.948730 
	C265.327545,488.961273 267.714813,486.966888 270.421051,484.882538 
	C268.383484,486.842316 266.026947,488.892059 263.305359,490.948730 
z"/>
<path fill="#F8B654" opacity="1.000000" stroke="none" 
	d="
M259.391357,492.763977 
	C260.196106,492.123322 260.866425,491.741455 261.821411,491.293060 
	C261.154694,492.366272 260.203278,493.506012 258.881714,494.626129 
	C258.759979,494.078583 259.008423,493.550629 259.391357,492.763977 
z"/>
<path fill="#F8B654" opacity="1.000000" stroke="none" 
	d="
M271.142944,484.718750 
	C271.682007,483.608795 272.570404,482.476685 273.753326,481.219971 
	C273.195984,482.295715 272.344116,483.496155 271.142944,484.718750 
z"/>
<path fill="#F8B654" opacity="1.000000" stroke="none" 
	d="
M274.426025,481.004547 
	C274.801025,480.334076 275.506500,479.621094 276.500793,478.795532 
	C276.111877,479.442688 275.434204,480.202332 274.426025,481.004547 
z"/>
<path fill="#F8B654" opacity="1.000000" stroke="none" 
	d="
M288.111511,465.684326 
	C288.268311,465.129456 288.743927,464.527191 289.479156,463.781158 
	C289.302612,464.303925 288.866486,464.970428 288.111511,465.684326 
z"/>
<path fill="#FDBA47" opacity="1.000000" stroke="none" 
	d="
M204.968033,554.035339 
	C209.438477,551.675232 213.873032,549.243896 218.386261,546.968689 
	C230.483871,540.870056 242.697678,534.995972 254.700287,528.717224 
	C261.265045,525.283081 267.394684,521.024902 273.904114,517.474976 
	C280.721069,513.757385 287.824615,510.567780 294.673950,506.906219 
	C298.877167,504.659180 302.721344,501.733978 306.948395,499.540436 
	C309.849457,498.035065 313.131531,497.263885 316.619202,496.086975 
	C310.326965,505.676422 303.590271,514.899292 291.935333,519.716248 
	C282.201538,523.739136 273.235291,529.606018 263.883667,534.570618 
	C254.819870,539.382385 245.639740,543.977661 236.627701,548.882935 
	C232.436996,551.163940 228.523178,553.953613 223.849915,556.718506 
	C222.495361,556.917297 221.774719,556.910156 220.741699,556.729675 
	C218.602478,556.670593 216.775650,556.784912 214.571426,556.941162 
	C213.693024,557.070923 213.191986,557.158630 212.690964,557.246338 
	C210.331161,557.239929 207.971359,557.233582 205.311981,556.726807 
	C204.997604,555.496094 204.982819,554.765686 204.968033,554.035339 
z"/>
<path fill="#FFE67E" opacity="1.000000" stroke="none" 
	d="
M163.119171,509.976685 
	C162.661179,510.197052 162.445328,510.143860 161.898605,510.046326 
	C161.553665,506.989563 161.539581,503.977142 161.627350,500.529114 
	C163.340698,499.126190 165.693314,498.550354 166.444489,497.128510 
	C171.658051,487.259918 176.639038,477.263062 181.422897,467.178436 
	C182.177734,465.587189 181.558563,463.344116 181.315811,461.175354 
	C184.455444,459.076508 187.853897,457.204773 191.607056,455.315430 
	C189.477005,460.804016 187.229889,466.433014 184.459229,471.791321 
	C178.254898,483.790131 171.804611,495.662048 165.400040,507.556366 
	C164.948578,508.394775 164.051300,508.993164 163.119171,509.976685 
z"/>
<path fill="#F79D54" opacity="1.000000" stroke="none" 
	d="
M164.497009,482.147491 
	C163.848434,484.847443 162.894592,487.676575 161.705566,490.660828 
	C160.207123,487.277863 161.393585,484.520447 164.497009,482.147491 
z"/>
<path fill="#FAA545" opacity="1.000000" stroke="none" 
	d="
M214.948807,556.899170 
	C216.775650,556.784912 218.602478,556.670593 220.728577,556.986450 
	C221.024796,557.587280 221.021744,557.757935 221.018692,557.928589 
	C219.290802,557.957458 217.562912,557.986328 215.403351,557.704712 
	C214.971695,557.394226 214.948807,556.899170 214.948807,556.899170 
z"/>
<path fill="#FAA545" opacity="1.000000" stroke="none" 
	d="
M204.595627,554.028931 
	C204.982819,554.765686 204.997604,555.496094 205.016052,556.591187 
	C204.265335,556.973145 203.510986,556.990295 202.383240,556.947327 
	C202.004181,556.179443 201.998520,555.471741 201.987030,554.410156 
	C202.728546,554.044983 203.475876,554.033752 204.595627,554.028931 
z"/>
<path fill="#F79D54" opacity="1.000000" stroke="none" 
	d="
M221.237167,558.101074 
	C221.021744,557.757935 221.024796,557.587280 221.040955,557.159790 
	C221.774719,556.910156 222.495361,556.917297 223.575287,556.906738 
	C223.934570,556.889038 223.963791,557.382874 223.969086,557.629272 
	C223.134811,558.008362 222.295227,558.140930 221.237167,558.101074 
z"/>
<path fill="#F79D54" opacity="1.000000" stroke="none" 
	d="
M214.571426,556.941162 
	C214.948807,556.899170 214.971695,557.394226 214.975159,557.641235 
	C214.303101,557.807556 213.627548,557.726868 212.821472,557.446289 
	C213.191986,557.158630 213.693024,557.070923 214.571426,556.941162 
z"/>
<path fill="#FFE67E" opacity="1.000000" stroke="none" 
	d="
M256.770264,227.287842 
	C258.575989,226.880341 259.966888,226.503998 261.652466,226.053589 
	C263.676422,226.652878 265.386383,227.841248 267.138489,227.907043 
	C273.443909,228.143860 279.790680,227.640930 286.069489,228.113434 
	C291.416199,228.515823 296.685760,229.906647 301.999481,230.800629 
	C304.762299,231.265442 307.538879,231.860229 310.323090,231.945953 
	C317.957489,232.181000 325.599396,232.226822 333.237854,232.202057 
	C334.125549,232.199173 335.010254,231.282486 335.956451,230.469849 
	C336.715485,230.600601 337.610687,230.904022 338.077789,231.527924 
	C339.685425,233.675064 341.143341,235.934250 342.658325,238.150742 
	C339.923492,238.735489 336.903687,240.377777 334.500916,239.730286 
	C320.758942,236.027176 306.773682,237.432114 292.874176,236.920364 
	C289.311432,236.789200 285.796844,235.552109 282.242371,234.923508 
	C279.974945,234.522507 277.677826,234.077942 275.388855,234.048065 
	C267.293091,233.942383 259.195099,234.006897 251.097946,234.006897 
	C250.900314,233.571091 250.702698,233.135269 250.505066,232.699463 
	C251.851166,231.235168 253.197250,229.770874 254.660889,228.079025 
	C255.304108,227.673965 255.829788,227.496490 256.770264,227.287842 
z"/>
<path fill="#FFE67E" opacity="1.000000" stroke="none" 
	d="
M484.005554,227.524384 
	C478.183289,222.343491 473.030426,215.720291 466.420288,211.253662 
	C451.529266,201.191467 440.750244,186.955795 427.578522,175.201920 
	C426.321533,174.080231 424.388794,173.715805 422.395599,172.977371 
	C421.530457,168.440170 421.039459,163.925415 420.456116,158.561508 
	C420.619965,158.524582 421.913422,158.233047 423.641785,158.307648 
	C426.745850,160.975739 429.555176,163.135559 432.059204,165.604980 
	C441.270874,174.689423 450.370605,183.887314 459.542236,193.012527 
	C460.826843,194.290634 462.292267,195.385208 463.648834,196.592972 
	C469.151123,201.491882 474.622986,206.425262 480.156311,211.288773 
	C481.322906,212.314148 482.701508,213.098343 483.982422,213.993652 
	C483.992798,218.349426 484.003143,222.705215 484.005554,227.524384 
z"/>
<path fill="#FFEE91" opacity="1.000000" stroke="none" 
	d="
M483.995605,213.537994 
	C482.701508,213.098343 481.322906,212.314148 480.156311,211.288773 
	C474.622986,206.425262 469.151123,201.491882 463.648834,196.592972 
	C462.292267,195.385208 460.826843,194.290634 459.542236,193.012527 
	C450.370605,183.887314 441.270874,174.689423 432.059204,165.604980 
	C429.555176,163.135559 426.745850,160.975739 424.027161,158.315384 
	C426.021057,157.942078 428.064423,157.927200 430.654083,158.281952 
	C431.727020,159.266525 432.200806,160.358490 432.788391,160.423615 
	C439.732391,161.193283 443.588867,166.459732 448.221313,170.678101 
	C458.150055,179.719254 468.175140,188.655136 478.221161,197.566025 
	C479.029907,198.283401 480.302704,198.477585 481.359863,198.914917 
	C482.242828,203.637390 483.125793,208.359848 483.995605,213.537994 
z"/>
<path fill="#FFF49A" opacity="1.000000" stroke="none" 
	d="
M481.309265,198.494888 
	C480.302704,198.477585 479.029907,198.283401 478.221161,197.566025 
	C468.175140,188.655136 458.150055,179.719254 448.221313,170.678101 
	C443.588867,166.459732 439.732391,161.193283 432.788391,160.423615 
	C432.200806,160.358490 431.727020,159.266525 431.090820,158.300400 
	C441.359558,157.253830 450.001312,162.303772 458.986694,166.315628 
	C470.067719,171.263184 475.690918,180.802078 480.171143,191.256287 
	C481.050293,193.307724 480.922180,195.790833 481.309265,198.494888 
z"/>
<path fill="#E45547" opacity="1.000000" stroke="none" 
	d="
M306.794525,435.191956 
	C303.259827,441.253143 299.376160,447.367859 295.255066,453.703674 
	C297.496948,449.087799 299.856384,444.183380 302.521637,439.451172 
	C303.436066,437.827637 305.115540,436.634979 306.794525,435.191956 
z"/>
<path fill="#E45547" opacity="1.000000" stroke="none" 
	d="
M310.827240,429.740784 
	C309.879028,431.544006 308.798370,433.193176 307.433746,434.986023 
	C307.942749,433.218414 308.735718,431.307159 309.825348,429.204773 
	C310.327972,429.189636 310.518890,429.380676 310.827240,429.740784 
z"/>
<path fill="#EF684C" opacity="1.000000" stroke="none" 
	d="
M284.746521,467.165894 
	C284.347595,468.079407 283.598755,469.007965 282.572052,470.054535 
	C282.994995,469.175323 283.695801,468.178131 284.746521,467.165894 
z"/>
<path fill="#D54A42" opacity="1.000000" stroke="none" 
	d="
M225.004959,243.005600 
	C225.486542,242.180222 225.963150,241.349426 226.439774,240.518631 
	C226.755020,240.756729 227.070251,240.994812 227.385483,241.232910 
	C226.778748,241.780518 226.171997,242.328110 225.277283,242.933105 
	C224.989304,242.990509 225.000000,243.000168 225.004959,243.005600 
z"/>
<path fill="#D34841" opacity="1.000000" stroke="none" 
	d="
M518.901733,479.480225 
	C516.885376,481.606628 514.951233,483.392456 512.924377,485.504150 
	C509.297455,487.749207 505.763275,489.668335 500.857269,492.332397 
	C503.036591,488.575348 504.445740,486.146057 505.937164,483.380676 
	C506.019440,483.044586 506.029022,483.026062 506.341614,482.898132 
	C514.860657,474.550262 519.664795,464.276794 523.813232,453.696716 
	C525.123108,450.356079 525.334717,446.584778 526.049011,443.010590 
	C526.060181,442.577881 526.071350,442.145142 526.378052,441.219788 
	C529.432129,436.857300 530.916565,432.749786 529.044861,428.016174 
	C529.050110,419.651306 529.055359,411.286407 529.224487,402.155579 
	C530.032288,398.126129 529.419983,395.419373 526.078796,393.921967 
	C526.075928,393.490662 526.072998,393.059326 526.212891,392.033081 
	C524.969910,386.673920 523.764343,381.803101 519.015320,379.028198 
	C518.174316,378.125000 517.333374,377.221771 516.111633,375.839844 
	C511.490540,372.986725 507.250183,370.612335 503.009827,368.237915 
	C502.541473,368.210571 502.073151,368.183228 501.014038,367.879700 
	C496.955597,367.059387 493.487976,366.515320 490.020325,365.971252 
	C484.674103,365.947784 479.327881,365.924347 473.521362,365.869537 
	C473.509552,365.003693 473.809113,363.577942 474.428528,363.421936 
	C486.803894,360.304779 499.183380,357.186340 511.869781,362.198273 
	C515.030518,363.446930 519.612183,363.079010 521.482849,365.237579 
	C526.835510,371.414246 531.890503,378.110809 535.659546,385.334900 
	C540.940186,395.456116 540.393616,407.095673 540.643066,418.081390 
	C540.830017,426.314209 537.341431,434.562744 536.391113,442.906952 
	C535.299377,452.492859 530.623962,460.372131 526.008972,468.364105 
	C523.867981,472.071838 521.337708,475.554779 518.901733,479.480225 
z"/>
<path fill="#EF684C" opacity="1.000000" stroke="none" 
	d="
M525.798828,443.260559 
	C525.334717,446.584778 525.123108,450.356079 523.813232,453.696716 
	C519.664795,464.276794 514.860657,474.550262 506.348206,482.893127 
	C506.949463,480.940308 507.756592,478.813629 508.781128,476.797455 
	C513.450928,467.607910 518.195190,458.456238 522.879944,449.274231 
	C523.841431,447.389709 524.662720,445.433594 525.798828,443.260559 
z"/>
<path fill="#EF684C" opacity="1.000000" stroke="none" 
	d="
M528.734192,428.218109 
	C530.916565,432.749786 529.432129,436.857300 526.371460,440.895142 
	C526.637939,436.808563 524.233826,432.000397 528.734192,428.218109 
z"/>
<path fill="#EF684C" opacity="1.000000" stroke="none" 
	d="
M519.023560,379.406616 
	C523.764343,381.803101 524.969910,386.673920 526.196533,391.709961 
	C523.702209,387.916168 521.367004,383.850616 519.023560,379.406616 
z"/>
<path fill="#EF684C" opacity="1.000000" stroke="none" 
	d="
M503.107605,368.547424 
	C507.250183,370.612335 511.490540,372.986725 515.848389,375.673767 
	C511.712341,373.609955 507.458862,371.233459 503.107605,368.547424 
z"/>
<path fill="#EF684C" opacity="1.000000" stroke="none" 
	d="
M490.219879,366.276825 
	C493.487976,366.515320 496.955597,367.059387 500.662445,367.865601 
	C497.161743,369.280121 493.469666,370.108032 490.219879,366.276825 
z"/>
<path fill="#EF684C" opacity="1.000000" stroke="none" 
	d="
M526.061035,394.331970 
	C529.419983,395.419373 530.032288,398.126129 529.215332,401.685913 
	C528.042603,399.568726 527.042908,397.155334 526.061035,394.331970 
z"/>
</svg>